G04 EAGLE Gerber RS-274X export*
G75*
%MOMM*%
%FSLAX34Y34*%
%LPD*%
%INBottom Copper*%
%IPPOS*%
%AMOC8*
5,1,8,0,0,1.08239X$1,22.5*%
G01*
%ADD10C,2.540000*%
%ADD11P,2.749271X8X22.500000*%
%ADD12C,1.676400*%
%ADD13C,1.879600*%
%ADD14C,1.524000*%
%ADD15C,2.000000*%
%ADD16C,1.320800*%
%ADD17C,1.676400*%
%ADD18C,0.152400*%

G36*
X389098Y10164D02*
X389098Y10164D01*
X389117Y10162D01*
X389219Y10184D01*
X389321Y10200D01*
X389338Y10210D01*
X389358Y10214D01*
X389447Y10267D01*
X389538Y10316D01*
X389552Y10330D01*
X389569Y10340D01*
X389636Y10419D01*
X389708Y10494D01*
X389716Y10512D01*
X389729Y10527D01*
X389768Y10623D01*
X389811Y10717D01*
X389813Y10737D01*
X389821Y10755D01*
X389839Y10922D01*
X389839Y489078D01*
X389836Y489098D01*
X389838Y489117D01*
X389816Y489219D01*
X389800Y489321D01*
X389790Y489338D01*
X389786Y489358D01*
X389733Y489447D01*
X389684Y489538D01*
X389670Y489552D01*
X389660Y489569D01*
X389581Y489636D01*
X389506Y489708D01*
X389488Y489716D01*
X389473Y489729D01*
X389377Y489768D01*
X389283Y489811D01*
X389263Y489813D01*
X389245Y489821D01*
X389078Y489839D01*
X10922Y489839D01*
X10902Y489836D01*
X10883Y489838D01*
X10781Y489816D01*
X10679Y489800D01*
X10662Y489790D01*
X10642Y489786D01*
X10553Y489733D01*
X10462Y489684D01*
X10448Y489670D01*
X10431Y489660D01*
X10364Y489581D01*
X10292Y489506D01*
X10284Y489488D01*
X10271Y489473D01*
X10232Y489377D01*
X10189Y489283D01*
X10187Y489263D01*
X10179Y489245D01*
X10161Y489078D01*
X10161Y10922D01*
X10164Y10902D01*
X10162Y10883D01*
X10184Y10781D01*
X10200Y10679D01*
X10210Y10662D01*
X10214Y10642D01*
X10267Y10553D01*
X10316Y10462D01*
X10330Y10448D01*
X10340Y10431D01*
X10419Y10364D01*
X10494Y10292D01*
X10512Y10284D01*
X10527Y10271D01*
X10623Y10232D01*
X10717Y10189D01*
X10737Y10187D01*
X10755Y10179D01*
X10922Y10161D01*
X389078Y10161D01*
X389098Y10164D01*
G37*
%LPC*%
G36*
X312781Y13235D02*
X312781Y13235D01*
X309420Y14627D01*
X306847Y17200D01*
X305455Y20561D01*
X305455Y26952D01*
X305452Y26972D01*
X305454Y26991D01*
X305432Y27093D01*
X305416Y27195D01*
X305406Y27212D01*
X305402Y27232D01*
X305349Y27321D01*
X305300Y27412D01*
X305286Y27426D01*
X305276Y27443D01*
X305197Y27510D01*
X305122Y27582D01*
X305104Y27590D01*
X305089Y27603D01*
X304993Y27642D01*
X304899Y27685D01*
X304879Y27687D01*
X304861Y27695D01*
X304694Y27713D01*
X285548Y27713D01*
X285528Y27710D01*
X285509Y27712D01*
X285407Y27690D01*
X285305Y27674D01*
X285288Y27664D01*
X285268Y27660D01*
X285179Y27607D01*
X285088Y27558D01*
X285074Y27544D01*
X285057Y27534D01*
X284990Y27455D01*
X284918Y27380D01*
X284910Y27362D01*
X284897Y27347D01*
X284858Y27251D01*
X284815Y27157D01*
X284813Y27137D01*
X284805Y27119D01*
X284787Y26952D01*
X284787Y26553D01*
X275947Y17713D01*
X204053Y17713D01*
X202713Y19053D01*
X202713Y201687D01*
X202709Y201714D01*
X202709Y201767D01*
X202642Y202401D01*
X202629Y202451D01*
X202625Y202502D01*
X202596Y202569D01*
X202577Y202638D01*
X202549Y202681D01*
X202528Y202729D01*
X202455Y202820D01*
X202440Y202842D01*
X202433Y202848D01*
X202424Y202860D01*
X201241Y204042D01*
X199075Y209271D01*
X199075Y214929D01*
X201241Y220158D01*
X202490Y221407D01*
X202543Y221481D01*
X202603Y221551D01*
X202615Y221581D01*
X202634Y221607D01*
X202661Y221694D01*
X202695Y221779D01*
X202699Y221820D01*
X202706Y221842D01*
X202705Y221874D01*
X202713Y221945D01*
X202713Y274353D01*
X202701Y274427D01*
X202698Y274503D01*
X202679Y274565D01*
X202674Y274596D01*
X202662Y274618D01*
X202648Y274662D01*
X199959Y280712D01*
X199953Y280720D01*
X199951Y280730D01*
X199886Y280823D01*
X199824Y280918D01*
X199816Y280924D01*
X199810Y280932D01*
X199720Y280999D01*
X199631Y281069D01*
X199621Y281073D01*
X199613Y281079D01*
X199506Y281114D01*
X199399Y281152D01*
X199389Y281152D01*
X199379Y281155D01*
X199266Y281154D01*
X199153Y281156D01*
X199143Y281153D01*
X199133Y281153D01*
X198972Y281106D01*
X196571Y280111D01*
X192629Y280111D01*
X188988Y281619D01*
X186201Y284406D01*
X184693Y288047D01*
X184693Y308753D01*
X186201Y312394D01*
X188988Y315181D01*
X192629Y316689D01*
X196571Y316689D01*
X200212Y315181D01*
X202999Y312394D01*
X204507Y308753D01*
X204507Y288047D01*
X203280Y285085D01*
X203256Y284986D01*
X203228Y284890D01*
X203229Y284867D01*
X203223Y284845D01*
X203233Y284745D01*
X203236Y284644D01*
X203245Y284617D01*
X203246Y284600D01*
X203260Y284570D01*
X203287Y284484D01*
X206860Y276446D01*
X206891Y276399D01*
X206912Y276348D01*
X206978Y276266D01*
X206995Y276240D01*
X207005Y276232D01*
X207017Y276217D01*
X207287Y275947D01*
X207287Y275647D01*
X207299Y275573D01*
X207302Y275498D01*
X207321Y275435D01*
X207326Y275404D01*
X207338Y275382D01*
X207352Y275338D01*
X207474Y275063D01*
X207337Y274707D01*
X207326Y274653D01*
X207305Y274601D01*
X207294Y274496D01*
X207287Y274467D01*
X207289Y274454D01*
X207287Y274434D01*
X207287Y226145D01*
X207294Y226100D01*
X207292Y226054D01*
X207314Y225979D01*
X207326Y225902D01*
X207348Y225862D01*
X207361Y225818D01*
X207405Y225754D01*
X207442Y225685D01*
X207475Y225653D01*
X207501Y225616D01*
X207563Y225569D01*
X207620Y225516D01*
X207662Y225496D01*
X207698Y225469D01*
X207772Y225445D01*
X207843Y225412D01*
X207889Y225407D01*
X207932Y225393D01*
X208010Y225394D01*
X208087Y225385D01*
X208132Y225395D01*
X208178Y225395D01*
X208310Y225433D01*
X208328Y225437D01*
X208332Y225440D01*
X208339Y225442D01*
X210471Y226325D01*
X216129Y226325D01*
X221358Y224159D01*
X225359Y220158D01*
X227525Y214929D01*
X227525Y209271D01*
X225359Y204042D01*
X221358Y200041D01*
X216129Y197875D01*
X210471Y197875D01*
X208339Y198758D01*
X208295Y198769D01*
X208253Y198788D01*
X208176Y198796D01*
X208100Y198814D01*
X208054Y198810D01*
X208009Y198815D01*
X207932Y198798D01*
X207855Y198791D01*
X207813Y198772D01*
X207768Y198763D01*
X207701Y198723D01*
X207630Y198691D01*
X207596Y198660D01*
X207557Y198637D01*
X207506Y198577D01*
X207449Y198525D01*
X207427Y198485D01*
X207397Y198450D01*
X207368Y198377D01*
X207331Y198309D01*
X207322Y198264D01*
X207305Y198221D01*
X207290Y198086D01*
X207287Y198067D01*
X207288Y198062D01*
X207287Y198055D01*
X207287Y23048D01*
X207290Y23028D01*
X207288Y23009D01*
X207310Y22907D01*
X207326Y22805D01*
X207336Y22788D01*
X207340Y22768D01*
X207393Y22679D01*
X207442Y22588D01*
X207456Y22574D01*
X207466Y22557D01*
X207545Y22490D01*
X207620Y22418D01*
X207638Y22410D01*
X207653Y22397D01*
X207749Y22358D01*
X207843Y22315D01*
X207863Y22313D01*
X207881Y22305D01*
X208048Y22287D01*
X263569Y22287D01*
X263577Y22288D01*
X263585Y22287D01*
X263699Y22308D01*
X263812Y22326D01*
X263819Y22330D01*
X263827Y22332D01*
X263928Y22388D01*
X264029Y22442D01*
X264035Y22447D01*
X264042Y22451D01*
X264120Y22536D01*
X264199Y22620D01*
X264202Y22627D01*
X264208Y22633D01*
X264254Y22739D01*
X264302Y22843D01*
X264303Y22851D01*
X264306Y22858D01*
X264317Y22973D01*
X264329Y23087D01*
X264328Y23095D01*
X264329Y23103D01*
X264302Y23216D01*
X264277Y23328D01*
X264273Y23335D01*
X264271Y23342D01*
X264210Y23441D01*
X264151Y23539D01*
X264145Y23544D01*
X264141Y23551D01*
X264017Y23664D01*
X263184Y24269D01*
X261969Y25484D01*
X260958Y26875D01*
X260178Y28407D01*
X259646Y30042D01*
X259482Y31077D01*
X269538Y31077D01*
X269558Y31080D01*
X269577Y31078D01*
X269679Y31100D01*
X269781Y31117D01*
X269798Y31126D01*
X269818Y31130D01*
X269907Y31183D01*
X269998Y31232D01*
X270012Y31246D01*
X270029Y31256D01*
X270096Y31335D01*
X270167Y31410D01*
X270176Y31428D01*
X270189Y31443D01*
X270227Y31539D01*
X270271Y31633D01*
X270273Y31653D01*
X270281Y31671D01*
X270299Y31838D01*
X270299Y32601D01*
X270301Y32601D01*
X270301Y31838D01*
X270304Y31818D01*
X270302Y31799D01*
X270324Y31697D01*
X270341Y31595D01*
X270350Y31578D01*
X270354Y31558D01*
X270407Y31469D01*
X270456Y31378D01*
X270470Y31364D01*
X270480Y31347D01*
X270559Y31280D01*
X270634Y31209D01*
X270652Y31200D01*
X270667Y31187D01*
X270763Y31148D01*
X270857Y31105D01*
X270877Y31103D01*
X270895Y31095D01*
X271062Y31077D01*
X280028Y31077D01*
X280118Y31092D01*
X280209Y31099D01*
X280238Y31111D01*
X280270Y31117D01*
X280351Y31159D01*
X280435Y31195D01*
X280467Y31221D01*
X280488Y31232D01*
X280510Y31255D01*
X280566Y31300D01*
X281553Y32287D01*
X304694Y32287D01*
X304714Y32290D01*
X304733Y32288D01*
X304835Y32310D01*
X304937Y32326D01*
X304954Y32336D01*
X304974Y32340D01*
X305063Y32393D01*
X305154Y32442D01*
X305168Y32456D01*
X305185Y32466D01*
X305252Y32545D01*
X305324Y32620D01*
X305332Y32638D01*
X305345Y32653D01*
X305384Y32749D01*
X305427Y32843D01*
X305429Y32863D01*
X305437Y32881D01*
X305455Y33048D01*
X305455Y39439D01*
X306847Y42800D01*
X309420Y45373D01*
X312781Y46765D01*
X316419Y46765D01*
X319780Y45373D01*
X322353Y42800D01*
X323745Y39439D01*
X323745Y20561D01*
X322353Y17200D01*
X319780Y14627D01*
X316419Y13235D01*
X312781Y13235D01*
G37*
%LPD*%
%LPC*%
G36*
X128829Y20093D02*
X128829Y20093D01*
X125188Y21601D01*
X122401Y24388D01*
X120893Y28029D01*
X120893Y31971D01*
X121842Y34260D01*
X121850Y34298D01*
X121859Y34316D01*
X121862Y34349D01*
X121868Y34373D01*
X121897Y34487D01*
X121896Y34493D01*
X121898Y34499D01*
X121887Y34616D01*
X121878Y34732D01*
X121875Y34738D01*
X121875Y34744D01*
X121827Y34851D01*
X121781Y34959D01*
X121777Y34964D01*
X121775Y34969D01*
X121762Y34983D01*
X121677Y35090D01*
X119276Y37490D01*
X117713Y39053D01*
X117713Y169714D01*
X117710Y169734D01*
X117712Y169753D01*
X117690Y169855D01*
X117674Y169957D01*
X117664Y169974D01*
X117660Y169994D01*
X117607Y170083D01*
X117558Y170174D01*
X117544Y170188D01*
X117534Y170205D01*
X117455Y170272D01*
X117380Y170344D01*
X117362Y170352D01*
X117347Y170365D01*
X117251Y170404D01*
X117157Y170447D01*
X117137Y170449D01*
X117119Y170457D01*
X116952Y170475D01*
X107708Y170475D01*
X103472Y172230D01*
X100230Y175472D01*
X98475Y179708D01*
X98475Y184292D01*
X100184Y188418D01*
X100211Y188531D01*
X100239Y188645D01*
X100239Y188651D01*
X100240Y188657D01*
X100229Y188774D01*
X100220Y188890D01*
X100218Y188896D01*
X100217Y188902D01*
X100169Y189009D01*
X100124Y189116D01*
X100119Y189122D01*
X100117Y189127D01*
X100104Y189140D01*
X100019Y189247D01*
X89276Y199990D01*
X87713Y201553D01*
X87713Y207964D01*
X87694Y208079D01*
X87677Y208195D01*
X87675Y208201D01*
X87674Y208207D01*
X87619Y208310D01*
X87566Y208414D01*
X87561Y208419D01*
X87558Y208424D01*
X87474Y208504D01*
X87390Y208587D01*
X87384Y208590D01*
X87380Y208594D01*
X87363Y208602D01*
X87243Y208668D01*
X83472Y210230D01*
X80230Y213472D01*
X78475Y217708D01*
X78475Y242292D01*
X80230Y246528D01*
X83472Y249770D01*
X87708Y251525D01*
X92292Y251525D01*
X96528Y249770D01*
X99770Y246528D01*
X101525Y242292D01*
X101525Y217708D01*
X99770Y213472D01*
X96528Y210230D01*
X92757Y208668D01*
X92657Y208606D01*
X92557Y208546D01*
X92553Y208541D01*
X92548Y208538D01*
X92473Y208448D01*
X92397Y208359D01*
X92395Y208353D01*
X92391Y208348D01*
X92349Y208240D01*
X92305Y208131D01*
X92304Y208123D01*
X92303Y208119D01*
X92302Y208101D01*
X92287Y207964D01*
X92287Y203763D01*
X92301Y203672D01*
X92309Y203582D01*
X92321Y203552D01*
X92326Y203520D01*
X92369Y203439D01*
X92405Y203355D01*
X92431Y203323D01*
X92442Y203302D01*
X92465Y203280D01*
X92510Y203224D01*
X103460Y192274D01*
X103554Y192206D01*
X103649Y192136D01*
X103655Y192134D01*
X103660Y192130D01*
X103771Y192096D01*
X103883Y192060D01*
X103889Y192060D01*
X103895Y192058D01*
X104012Y192061D01*
X104128Y192062D01*
X104136Y192064D01*
X104141Y192064D01*
X104158Y192071D01*
X104290Y192109D01*
X107708Y193525D01*
X132292Y193525D01*
X136528Y191770D01*
X139770Y188528D01*
X141525Y184292D01*
X141525Y179708D01*
X139770Y175472D01*
X136528Y172230D01*
X132292Y170475D01*
X123048Y170475D01*
X123028Y170472D01*
X123009Y170474D01*
X122907Y170452D01*
X122805Y170436D01*
X122788Y170426D01*
X122768Y170422D01*
X122679Y170369D01*
X122588Y170320D01*
X122574Y170306D01*
X122557Y170296D01*
X122490Y170217D01*
X122418Y170142D01*
X122410Y170124D01*
X122397Y170109D01*
X122358Y170013D01*
X122315Y169919D01*
X122313Y169899D01*
X122305Y169881D01*
X122287Y169714D01*
X122287Y104235D01*
X122298Y104164D01*
X122300Y104092D01*
X122318Y104043D01*
X122326Y103992D01*
X122360Y103929D01*
X122385Y103861D01*
X122417Y103821D01*
X122442Y103775D01*
X122494Y103725D01*
X122538Y103669D01*
X122582Y103641D01*
X122620Y103605D01*
X122685Y103575D01*
X122745Y103536D01*
X122796Y103524D01*
X122843Y103502D01*
X122914Y103494D01*
X122984Y103476D01*
X123036Y103480D01*
X123087Y103475D01*
X123158Y103490D01*
X123229Y103495D01*
X123277Y103516D01*
X123328Y103527D01*
X123389Y103564D01*
X123455Y103592D01*
X123511Y103636D01*
X123539Y103653D01*
X123554Y103671D01*
X123586Y103696D01*
X124688Y104799D01*
X128329Y106307D01*
X132271Y106307D01*
X135912Y104799D01*
X138699Y102012D01*
X140207Y98371D01*
X140207Y94429D01*
X138699Y90788D01*
X135912Y88001D01*
X132271Y86493D01*
X128329Y86493D01*
X124688Y88001D01*
X123586Y89104D01*
X123528Y89145D01*
X123476Y89195D01*
X123429Y89217D01*
X123387Y89247D01*
X123318Y89268D01*
X123253Y89298D01*
X123201Y89304D01*
X123151Y89319D01*
X123080Y89318D01*
X123009Y89325D01*
X122958Y89314D01*
X122906Y89313D01*
X122838Y89288D01*
X122768Y89273D01*
X122723Y89246D01*
X122675Y89229D01*
X122619Y89184D01*
X122557Y89147D01*
X122523Y89107D01*
X122483Y89075D01*
X122444Y89015D01*
X122397Y88960D01*
X122378Y88912D01*
X122350Y88868D01*
X122332Y88798D01*
X122305Y88732D01*
X122297Y88661D01*
X122289Y88629D01*
X122291Y88606D01*
X122287Y88565D01*
X122287Y41263D01*
X122301Y41172D01*
X122309Y41082D01*
X122321Y41052D01*
X122326Y41020D01*
X122369Y40939D01*
X122405Y40855D01*
X122431Y40823D01*
X122442Y40802D01*
X122465Y40780D01*
X122510Y40724D01*
X124579Y38655D01*
X124673Y38587D01*
X124768Y38517D01*
X124774Y38515D01*
X124779Y38511D01*
X124890Y38477D01*
X125002Y38441D01*
X125008Y38441D01*
X125014Y38439D01*
X125131Y38442D01*
X125248Y38443D01*
X125255Y38445D01*
X125260Y38445D01*
X125277Y38452D01*
X125409Y38490D01*
X128829Y39907D01*
X132771Y39907D01*
X136412Y38399D01*
X139199Y35612D01*
X140707Y31971D01*
X140707Y28029D01*
X139199Y24388D01*
X136412Y21601D01*
X132771Y20093D01*
X128829Y20093D01*
G37*
%LPD*%
%LPC*%
G36*
X216489Y421589D02*
X216489Y421589D01*
X209705Y423407D01*
X203624Y426918D01*
X198658Y431884D01*
X195147Y437965D01*
X193329Y444749D01*
X193329Y451771D01*
X195147Y458555D01*
X198658Y464636D01*
X203624Y469602D01*
X209705Y473113D01*
X216489Y474931D01*
X223511Y474931D01*
X230295Y473113D01*
X236376Y469602D01*
X241342Y464636D01*
X244853Y458555D01*
X246671Y451771D01*
X246671Y444749D01*
X244853Y437965D01*
X241342Y431884D01*
X236376Y426918D01*
X230295Y423407D01*
X223511Y421589D01*
X216489Y421589D01*
G37*
%LPD*%
%LPC*%
G36*
X26729Y86493D02*
X26729Y86493D01*
X23088Y88001D01*
X20301Y90788D01*
X18793Y94429D01*
X18793Y98371D01*
X20301Y102012D01*
X23088Y104799D01*
X26729Y106307D01*
X26952Y106307D01*
X26972Y106310D01*
X26991Y106308D01*
X27093Y106330D01*
X27195Y106346D01*
X27212Y106356D01*
X27232Y106360D01*
X27321Y106413D01*
X27412Y106462D01*
X27426Y106476D01*
X27443Y106486D01*
X27510Y106565D01*
X27582Y106640D01*
X27590Y106658D01*
X27603Y106673D01*
X27642Y106769D01*
X27685Y106863D01*
X27687Y106883D01*
X27695Y106901D01*
X27713Y107068D01*
X27713Y340947D01*
X61648Y374882D01*
X61701Y374956D01*
X61761Y375026D01*
X61773Y375056D01*
X61792Y375082D01*
X61819Y375169D01*
X61853Y375254D01*
X61857Y375295D01*
X61864Y375317D01*
X61863Y375349D01*
X61871Y375421D01*
X61871Y388249D01*
X63109Y391237D01*
X65395Y393523D01*
X68383Y394761D01*
X71617Y394761D01*
X74605Y393523D01*
X76891Y391237D01*
X78129Y388249D01*
X78129Y371807D01*
X76891Y368819D01*
X74605Y366533D01*
X71617Y365295D01*
X68383Y365295D01*
X65395Y366533D01*
X63119Y368809D01*
X63103Y368821D01*
X63091Y368836D01*
X63004Y368892D01*
X62920Y368952D01*
X62901Y368958D01*
X62884Y368969D01*
X62783Y368994D01*
X62685Y369025D01*
X62665Y369024D01*
X62645Y369029D01*
X62542Y369021D01*
X62439Y369018D01*
X62420Y369012D01*
X62400Y369010D01*
X62305Y368970D01*
X62208Y368934D01*
X62192Y368921D01*
X62174Y368914D01*
X62043Y368809D01*
X32510Y339276D01*
X32457Y339202D01*
X32397Y339132D01*
X32385Y339102D01*
X32366Y339076D01*
X32339Y338989D01*
X32305Y338904D01*
X32301Y338863D01*
X32294Y338841D01*
X32295Y338809D01*
X32287Y338737D01*
X32287Y106146D01*
X32306Y106031D01*
X32323Y105915D01*
X32325Y105909D01*
X32326Y105903D01*
X32381Y105801D01*
X32434Y105696D01*
X32439Y105691D01*
X32442Y105686D01*
X32526Y105606D01*
X32610Y105524D01*
X32616Y105520D01*
X32620Y105516D01*
X32637Y105509D01*
X32757Y105443D01*
X34312Y104799D01*
X37099Y102012D01*
X38607Y98371D01*
X38607Y94429D01*
X37099Y90788D01*
X34312Y88001D01*
X30671Y86493D01*
X26729Y86493D01*
G37*
%LPD*%
%LPC*%
G36*
X148708Y208475D02*
X148708Y208475D01*
X144472Y210230D01*
X141230Y213472D01*
X139475Y217708D01*
X139475Y242292D01*
X141230Y246528D01*
X144472Y249770D01*
X148708Y251525D01*
X153292Y251525D01*
X157528Y249770D01*
X160770Y246528D01*
X162525Y242292D01*
X162525Y217708D01*
X160770Y213472D01*
X157528Y210230D01*
X153292Y208475D01*
X148708Y208475D01*
G37*
%LPD*%
%LPC*%
G36*
X243429Y280111D02*
X243429Y280111D01*
X239788Y281619D01*
X237001Y284406D01*
X235493Y288047D01*
X235493Y308753D01*
X237001Y312394D01*
X239788Y315181D01*
X243429Y316689D01*
X247371Y316689D01*
X251012Y315181D01*
X253799Y312394D01*
X255307Y308753D01*
X255307Y288047D01*
X253799Y284406D01*
X251012Y281619D01*
X247371Y280111D01*
X243429Y280111D01*
G37*
%LPD*%
%LPC*%
G36*
X338181Y13235D02*
X338181Y13235D01*
X334820Y14627D01*
X332247Y17200D01*
X330855Y20561D01*
X330855Y39439D01*
X332247Y42800D01*
X334820Y45373D01*
X338181Y46765D01*
X341819Y46765D01*
X345180Y45373D01*
X347753Y42800D01*
X349145Y39439D01*
X349145Y20561D01*
X347753Y17200D01*
X345180Y14627D01*
X341819Y13235D01*
X338181Y13235D01*
G37*
%LPD*%
%LPC*%
G36*
X93275Y425239D02*
X93275Y425239D01*
X90287Y426477D01*
X88001Y428763D01*
X86763Y431751D01*
X86763Y448193D01*
X88001Y451181D01*
X90287Y453467D01*
X93275Y454705D01*
X96509Y454705D01*
X99497Y453467D01*
X101783Y451181D01*
X103021Y448193D01*
X103021Y431751D01*
X101783Y428763D01*
X99497Y426477D01*
X96509Y425239D01*
X93275Y425239D01*
G37*
%LPD*%
%LPC*%
G36*
X68383Y425239D02*
X68383Y425239D01*
X65395Y426477D01*
X63109Y428763D01*
X61871Y431751D01*
X61871Y448193D01*
X63109Y451181D01*
X65395Y453467D01*
X68383Y454705D01*
X71617Y454705D01*
X74605Y453467D01*
X76891Y451181D01*
X78129Y448193D01*
X78129Y431751D01*
X76891Y428763D01*
X74605Y426477D01*
X71617Y425239D01*
X68383Y425239D01*
G37*
%LPD*%
%LPC*%
G36*
X43491Y425239D02*
X43491Y425239D01*
X40503Y426477D01*
X38217Y428763D01*
X36979Y431751D01*
X36979Y448193D01*
X38217Y451181D01*
X40503Y453467D01*
X43491Y454705D01*
X46725Y454705D01*
X49713Y453467D01*
X51999Y451181D01*
X53237Y448193D01*
X53237Y431751D01*
X51999Y428763D01*
X49713Y426477D01*
X46725Y425239D01*
X43491Y425239D01*
G37*
%LPD*%
%LPC*%
G36*
X93275Y365295D02*
X93275Y365295D01*
X90287Y366533D01*
X88001Y368819D01*
X86763Y371807D01*
X86763Y388249D01*
X88001Y391237D01*
X90287Y393523D01*
X93275Y394761D01*
X96509Y394761D01*
X99497Y393523D01*
X101783Y391237D01*
X103021Y388249D01*
X103021Y371807D01*
X101783Y368819D01*
X99497Y366533D01*
X96509Y365295D01*
X93275Y365295D01*
G37*
%LPD*%
%LPC*%
G36*
X43491Y365295D02*
X43491Y365295D01*
X40503Y366533D01*
X38217Y368819D01*
X36979Y371807D01*
X36979Y388249D01*
X38217Y391237D01*
X40503Y393523D01*
X43491Y394761D01*
X46725Y394761D01*
X49713Y393523D01*
X51999Y391237D01*
X53237Y388249D01*
X53237Y371807D01*
X51999Y368819D01*
X49713Y366533D01*
X46725Y365295D01*
X43491Y365295D01*
G37*
%LPD*%
%LPC*%
G36*
X357827Y324477D02*
X357827Y324477D01*
X353813Y326140D01*
X350740Y329213D01*
X349077Y333227D01*
X349077Y337573D01*
X350740Y341587D01*
X353813Y344660D01*
X357827Y346323D01*
X362173Y346323D01*
X366187Y344660D01*
X369260Y341587D01*
X370923Y337573D01*
X370923Y333227D01*
X369260Y329213D01*
X366187Y326140D01*
X362173Y324477D01*
X357827Y324477D01*
G37*
%LPD*%
%LPC*%
G36*
X357827Y273677D02*
X357827Y273677D01*
X353813Y275340D01*
X350740Y278413D01*
X349077Y282427D01*
X349077Y286773D01*
X350740Y290787D01*
X353813Y293860D01*
X357827Y295523D01*
X362173Y295523D01*
X366187Y293860D01*
X369260Y290787D01*
X370923Y286773D01*
X370923Y282427D01*
X369260Y278413D01*
X366187Y275340D01*
X362173Y273677D01*
X357827Y273677D01*
G37*
%LPD*%
%LPC*%
G36*
X27229Y20093D02*
X27229Y20093D01*
X23588Y21601D01*
X20801Y24388D01*
X19293Y28029D01*
X19293Y31971D01*
X20801Y35612D01*
X23588Y38399D01*
X27229Y39907D01*
X31171Y39907D01*
X34812Y38399D01*
X37599Y35612D01*
X39107Y31971D01*
X39107Y28029D01*
X37599Y24388D01*
X34812Y21601D01*
X31171Y20093D01*
X27229Y20093D01*
G37*
%LPD*%
%LPC*%
G36*
X166729Y22693D02*
X166729Y22693D01*
X163088Y24201D01*
X160301Y26988D01*
X158793Y30629D01*
X158793Y34571D01*
X160301Y38212D01*
X163088Y40999D01*
X166729Y42507D01*
X170671Y42507D01*
X174312Y40999D01*
X177099Y38212D01*
X178607Y34571D01*
X178607Y30629D01*
X177099Y26988D01*
X174312Y24201D01*
X170671Y22693D01*
X166729Y22693D01*
G37*
%LPD*%
%LPC*%
G36*
X159729Y86493D02*
X159729Y86493D01*
X156088Y88001D01*
X153301Y90788D01*
X151793Y94429D01*
X151793Y98371D01*
X153301Y102012D01*
X156088Y104799D01*
X159729Y106307D01*
X163671Y106307D01*
X167312Y104799D01*
X170099Y102012D01*
X171607Y98371D01*
X171607Y94429D01*
X170099Y90788D01*
X167312Y88001D01*
X163671Y86493D01*
X159729Y86493D01*
G37*
%LPD*%
%LPC*%
G36*
X265623Y213623D02*
X265623Y213623D01*
X265623Y227341D01*
X270413Y227341D01*
X279341Y218413D01*
X279341Y213623D01*
X265623Y213623D01*
G37*
%LPD*%
%LPC*%
G36*
X265623Y196859D02*
X265623Y196859D01*
X265623Y210577D01*
X279341Y210577D01*
X279341Y205787D01*
X270413Y196859D01*
X265623Y196859D01*
G37*
%LPD*%
%LPC*%
G36*
X248859Y213623D02*
X248859Y213623D01*
X248859Y218413D01*
X257787Y227341D01*
X262577Y227341D01*
X262577Y213623D01*
X248859Y213623D01*
G37*
%LPD*%
%LPC*%
G36*
X257787Y196859D02*
X257787Y196859D01*
X248859Y205787D01*
X248859Y210577D01*
X262577Y210577D01*
X262577Y196859D01*
X257787Y196859D01*
G37*
%LPD*%
%LPC*%
G36*
X221523Y299923D02*
X221523Y299923D01*
X221523Y317600D01*
X222558Y317436D01*
X224193Y316904D01*
X225725Y316124D01*
X227116Y315113D01*
X228331Y313898D01*
X229342Y312507D01*
X230122Y310975D01*
X230654Y309340D01*
X230923Y307642D01*
X230923Y299923D01*
X221523Y299923D01*
G37*
%LPD*%
%LPC*%
G36*
X221523Y296877D02*
X221523Y296877D01*
X230923Y296877D01*
X230923Y289158D01*
X230654Y287460D01*
X230122Y285825D01*
X229342Y284293D01*
X228331Y282902D01*
X227116Y281687D01*
X225725Y280676D01*
X224193Y279896D01*
X222558Y279364D01*
X221523Y279200D01*
X221523Y296877D01*
G37*
%LPD*%
%LPC*%
G36*
X209077Y299923D02*
X209077Y299923D01*
X209077Y307642D01*
X209346Y309340D01*
X209878Y310975D01*
X210658Y312507D01*
X211669Y313898D01*
X212884Y315113D01*
X214275Y316124D01*
X215807Y316904D01*
X217442Y317436D01*
X218477Y317600D01*
X218477Y299923D01*
X209077Y299923D01*
G37*
%LPD*%
%LPC*%
G36*
X217442Y279364D02*
X217442Y279364D01*
X215807Y279896D01*
X214275Y280676D01*
X212884Y281687D01*
X211669Y282902D01*
X210658Y284293D01*
X209878Y285825D01*
X209346Y287460D01*
X209077Y289158D01*
X209077Y296877D01*
X218477Y296877D01*
X218477Y279200D01*
X217442Y279364D01*
G37*
%LPD*%
%LPC*%
G36*
X366923Y31523D02*
X366923Y31523D01*
X366923Y47666D01*
X367779Y47531D01*
X369300Y47036D01*
X370725Y46310D01*
X372019Y45370D01*
X373150Y44239D01*
X374090Y42945D01*
X374816Y41520D01*
X375311Y39999D01*
X375561Y38420D01*
X375561Y31523D01*
X366923Y31523D01*
G37*
%LPD*%
%LPC*%
G36*
X366923Y28477D02*
X366923Y28477D01*
X375561Y28477D01*
X375561Y21580D01*
X375311Y20001D01*
X374816Y18480D01*
X374090Y17055D01*
X373150Y15761D01*
X372019Y14630D01*
X370725Y13690D01*
X369300Y12964D01*
X367779Y12469D01*
X366923Y12334D01*
X366923Y28477D01*
G37*
%LPD*%
%LPC*%
G36*
X355239Y31523D02*
X355239Y31523D01*
X355239Y38420D01*
X355489Y39999D01*
X355984Y41520D01*
X356710Y42945D01*
X357650Y44239D01*
X358781Y45370D01*
X360075Y46310D01*
X361500Y47036D01*
X363021Y47531D01*
X363877Y47666D01*
X363877Y31523D01*
X355239Y31523D01*
G37*
%LPD*%
%LPC*%
G36*
X363021Y12469D02*
X363021Y12469D01*
X361500Y12964D01*
X360075Y13690D01*
X358781Y14630D01*
X357650Y15761D01*
X356710Y17055D01*
X355984Y18480D01*
X355489Y20001D01*
X355239Y21580D01*
X355239Y28477D01*
X363877Y28477D01*
X363877Y12334D01*
X363021Y12469D01*
G37*
%LPD*%
%LPC*%
G36*
X264823Y97923D02*
X264823Y97923D01*
X264823Y107218D01*
X265858Y107054D01*
X267493Y106522D01*
X269025Y105742D01*
X270416Y104731D01*
X271631Y103516D01*
X272642Y102125D01*
X273422Y100593D01*
X273954Y98958D01*
X274118Y97923D01*
X264823Y97923D01*
G37*
%LPD*%
%LPC*%
G36*
X271823Y34123D02*
X271823Y34123D01*
X271823Y43418D01*
X272858Y43254D01*
X274493Y42722D01*
X276025Y41942D01*
X277416Y40931D01*
X278631Y39716D01*
X279642Y38325D01*
X280422Y36793D01*
X280954Y35158D01*
X281118Y34123D01*
X271823Y34123D01*
G37*
%LPD*%
%LPC*%
G36*
X252482Y97923D02*
X252482Y97923D01*
X252646Y98958D01*
X253178Y100593D01*
X253958Y102125D01*
X254969Y103516D01*
X256184Y104731D01*
X257575Y105742D01*
X259107Y106522D01*
X260742Y107054D01*
X261777Y107218D01*
X261777Y97923D01*
X252482Y97923D01*
G37*
%LPD*%
%LPC*%
G36*
X264823Y94877D02*
X264823Y94877D01*
X274118Y94877D01*
X273954Y93842D01*
X273422Y92207D01*
X272642Y90675D01*
X271631Y89284D01*
X270416Y88069D01*
X269025Y87058D01*
X267493Y86278D01*
X265858Y85746D01*
X264823Y85582D01*
X264823Y94877D01*
G37*
%LPD*%
%LPC*%
G36*
X259482Y34123D02*
X259482Y34123D01*
X259646Y35158D01*
X260178Y36793D01*
X260958Y38325D01*
X261969Y39716D01*
X263184Y40931D01*
X264575Y41942D01*
X266107Y42722D01*
X267742Y43254D01*
X268777Y43418D01*
X268777Y34123D01*
X259482Y34123D01*
G37*
%LPD*%
%LPC*%
G36*
X260742Y85746D02*
X260742Y85746D01*
X259107Y86278D01*
X257575Y87058D01*
X256184Y88069D01*
X254969Y89284D01*
X253958Y90675D01*
X253178Y92207D01*
X252646Y93842D01*
X252482Y94877D01*
X261777Y94877D01*
X261777Y85582D01*
X260742Y85746D01*
G37*
%LPD*%
%LPC*%
G36*
X264099Y212099D02*
X264099Y212099D01*
X264099Y212101D01*
X264101Y212101D01*
X264101Y212099D01*
X264099Y212099D01*
G37*
%LPD*%
%LPC*%
G36*
X263299Y96399D02*
X263299Y96399D01*
X263299Y96401D01*
X263301Y96401D01*
X263301Y96399D01*
X263299Y96399D01*
G37*
%LPD*%
%LPC*%
G36*
X219999Y298399D02*
X219999Y298399D01*
X219999Y298401D01*
X220001Y298401D01*
X220001Y298399D01*
X219999Y298399D01*
G37*
%LPD*%
%LPC*%
G36*
X365399Y29999D02*
X365399Y29999D01*
X365399Y30001D01*
X365401Y30001D01*
X365401Y29999D01*
X365399Y29999D01*
G37*
%LPD*%
D10*
X213300Y212100D03*
D11*
X264100Y212100D03*
D12*
X130300Y96400D03*
X28700Y96400D03*
X263300Y96400D03*
X161700Y96400D03*
X130800Y30000D03*
X29200Y30000D03*
X270300Y32600D03*
X168700Y32600D03*
D13*
X360000Y284600D03*
X360000Y335400D03*
D14*
X314600Y37620D02*
X314600Y22380D01*
X340000Y22380D02*
X340000Y37620D01*
X365400Y37620D02*
X365400Y22380D01*
D15*
X151000Y220000D02*
X151000Y240000D01*
X90000Y240000D02*
X90000Y220000D01*
X110000Y182000D02*
X130000Y182000D01*
D16*
X45108Y433368D02*
X45108Y446576D01*
X94892Y446576D02*
X94892Y433368D01*
X45108Y386632D02*
X45108Y373424D01*
X94892Y373424D02*
X94892Y386632D01*
X70000Y433368D02*
X70000Y446576D01*
X70000Y386632D02*
X70000Y373424D01*
D17*
X194600Y306782D02*
X194600Y290018D01*
X220000Y290018D02*
X220000Y306782D01*
X245400Y306782D02*
X245400Y290018D01*
D18*
X70000Y380000D02*
X30000Y340000D01*
X30000Y97500D01*
X70000Y380000D02*
X70000Y380028D01*
X30000Y97500D02*
X28700Y96400D01*
X110500Y182000D02*
X90000Y202500D01*
X90000Y230000D01*
X110500Y182000D02*
X120000Y182000D01*
X120000Y40000D02*
X130000Y30000D01*
X120000Y40000D02*
X120000Y182000D01*
X130000Y30000D02*
X130800Y30000D01*
X282500Y30000D02*
X314600Y30000D01*
X282500Y30000D02*
X282500Y27500D01*
X275000Y20000D01*
X205000Y20000D01*
X205000Y201847D01*
X213300Y212100D01*
X205000Y214053D02*
X205000Y275000D01*
X194600Y298400D01*
X205000Y214053D02*
X213300Y212100D01*
X265000Y40000D02*
X270000Y35000D01*
X265000Y40000D02*
X265000Y95000D01*
X270000Y35000D02*
X270300Y32600D01*
X265000Y95000D02*
X263300Y96400D01*
X262500Y97500D02*
X255000Y105000D01*
X255000Y190867D01*
X262500Y97500D02*
X263300Y96400D01*
X255000Y190867D02*
X264100Y212100D01*
X252500Y285000D02*
X239100Y298400D01*
X252500Y285000D02*
X252500Y215000D01*
X239100Y298400D02*
X220000Y298400D01*
X252500Y215000D02*
X264100Y212100D01*
M02*
