G04 EAGLE Gerber RS-274X export*
G75*
%MOMM*%
%FSLAX34Y34*%
%LPD*%
%IN*%
%IPPOS*%
%AMOC8*
5,1,8,0,0,1.08239X$1,22.5*%
G01*
%ADD10C,0.254000*%


D10*
X0Y0D02*
X400000Y0D01*
X400000Y500000D01*
X0Y500000D01*
X0Y0D01*
X85000Y216000D02*
X95000Y216000D01*
X95000Y244000D01*
X85000Y244000D01*
X85000Y216000D01*
X146000Y213500D02*
X156000Y213500D01*
X156000Y246500D01*
X146000Y246500D01*
X146000Y213500D01*
X106000Y177000D02*
X134000Y177000D01*
X134000Y187000D01*
X106000Y187000D01*
X106000Y177000D01*
X236510Y447720D02*
X236439Y446641D01*
X236298Y445569D01*
X236087Y444509D01*
X235808Y443465D01*
X235460Y442441D01*
X235046Y441443D01*
X234568Y440473D01*
X234028Y439537D01*
X233427Y438638D01*
X232769Y437781D01*
X232057Y436968D01*
X231292Y436204D01*
X230479Y435491D01*
X229622Y434833D01*
X228723Y434232D01*
X227787Y433692D01*
X226817Y433214D01*
X225819Y432800D01*
X224795Y432452D01*
X223751Y432173D01*
X222691Y431962D01*
X221619Y431821D01*
X220540Y431750D01*
X219460Y431750D01*
X218381Y431821D01*
X217309Y431962D01*
X216249Y432173D01*
X215205Y432452D01*
X214181Y432800D01*
X213183Y433214D01*
X212213Y433692D01*
X211277Y434232D01*
X210378Y434833D01*
X209521Y435491D01*
X208708Y436204D01*
X207944Y436968D01*
X207231Y437781D01*
X206573Y438638D01*
X205972Y439537D01*
X205432Y440473D01*
X204954Y441443D01*
X204540Y442441D01*
X204192Y443465D01*
X203913Y444509D01*
X203702Y445569D01*
X203561Y446641D01*
X203490Y447720D01*
X203490Y448800D01*
X203561Y449879D01*
X203702Y450951D01*
X203913Y452011D01*
X204192Y453055D01*
X204540Y454079D01*
X204954Y455077D01*
X205432Y456047D01*
X205972Y456983D01*
X206573Y457882D01*
X207231Y458739D01*
X207944Y459552D01*
X208708Y460317D01*
X209521Y461029D01*
X210378Y461687D01*
X211277Y462288D01*
X212213Y462828D01*
X213183Y463306D01*
X214181Y463720D01*
X215205Y464068D01*
X216249Y464347D01*
X217309Y464558D01*
X218381Y464699D01*
X219460Y464770D01*
X220540Y464770D01*
X221619Y464699D01*
X222691Y464558D01*
X223751Y464347D01*
X224795Y464068D01*
X225819Y463720D01*
X226817Y463306D01*
X227787Y462828D01*
X228723Y462288D01*
X229622Y461687D01*
X230479Y461029D01*
X231292Y460317D01*
X232057Y459552D01*
X232769Y458739D01*
X233427Y457882D01*
X234028Y456983D01*
X234568Y456047D01*
X235046Y455077D01*
X235460Y454079D01*
X235808Y453055D01*
X236087Y452011D01*
X236298Y450951D01*
X236439Y449879D01*
X236510Y448800D01*
X236510Y447720D01*
M02*
