G04 EAGLE Gerber RS-274X export*
G75*
%MOMM*%
%FSLAX34Y34*%
%LPD*%
%INSilkscreen Top*%
%IPPOS*%
%AMOC8*
5,1,8,0,0,1.08239X$1,22.5*%
G01*
%ADD10C,0.152400*%
%ADD11R,0.635000X2.540000*%
%ADD12C,0.177800*%
%ADD13C,0.101600*%
%ADD14R,0.508000X2.540000*%
%ADD15R,1.905000X0.762000*%
%ADD16C,0.127000*%
%ADD17C,0.203200*%
%ADD18R,0.200000X0.200000*%
%ADD19C,0.050800*%
%ADD20R,0.762000X0.635000*%
%ADD21R,1.270000X2.794000*%


D10*
X227270Y212100D02*
X229810Y212100D01*
X229810Y199400D01*
X236160Y199400D01*
X236160Y224800D01*
X229810Y224800D01*
X229810Y212100D01*
X245050Y212100D02*
X250130Y212100D01*
X194250Y212100D02*
X181550Y212100D01*
X187900Y205750D02*
X187900Y218450D01*
X168850Y212100D02*
X168871Y213814D01*
X168934Y215527D01*
X169039Y217238D01*
X169186Y218946D01*
X169375Y220650D01*
X169606Y222349D01*
X169878Y224042D01*
X170192Y225727D01*
X170547Y227404D01*
X170943Y229072D01*
X171380Y230730D01*
X171858Y232376D01*
X172375Y234011D01*
X172933Y235632D01*
X173530Y237239D01*
X174167Y238830D01*
X174842Y240406D01*
X175556Y241965D01*
X176308Y243505D01*
X177098Y245027D01*
X177924Y246529D01*
X178788Y248010D01*
X179687Y249470D01*
X180622Y250907D01*
X181592Y252320D01*
X182596Y253710D01*
X183634Y255074D01*
X184705Y256412D01*
X185809Y257724D01*
X186945Y259008D01*
X188111Y260264D01*
X189309Y261491D01*
X190536Y262689D01*
X191792Y263855D01*
X193076Y264991D01*
X194388Y266095D01*
X195726Y267166D01*
X197090Y268204D01*
X198480Y269208D01*
X199893Y270178D01*
X201330Y271113D01*
X202790Y272012D01*
X204271Y272876D01*
X205773Y273702D01*
X207295Y274492D01*
X208835Y275244D01*
X210394Y275958D01*
X211970Y276633D01*
X213561Y277270D01*
X215168Y277867D01*
X216789Y278425D01*
X218424Y278942D01*
X220070Y279420D01*
X221728Y279857D01*
X223396Y280253D01*
X225073Y280608D01*
X226758Y280922D01*
X228451Y281194D01*
X230150Y281425D01*
X231854Y281614D01*
X233562Y281761D01*
X235273Y281866D01*
X236986Y281929D01*
X238700Y281950D01*
X240414Y281929D01*
X242127Y281866D01*
X243838Y281761D01*
X245546Y281614D01*
X247250Y281425D01*
X248949Y281194D01*
X250642Y280922D01*
X252327Y280608D01*
X254004Y280253D01*
X255672Y279857D01*
X257330Y279420D01*
X258976Y278942D01*
X260611Y278425D01*
X262232Y277867D01*
X263839Y277270D01*
X265430Y276633D01*
X267006Y275958D01*
X268565Y275244D01*
X270105Y274492D01*
X271627Y273702D01*
X273129Y272876D01*
X274610Y272012D01*
X276070Y271113D01*
X277507Y270178D01*
X278920Y269208D01*
X280310Y268204D01*
X281674Y267166D01*
X283012Y266095D01*
X284324Y264991D01*
X285608Y263855D01*
X286864Y262689D01*
X288091Y261491D01*
X289289Y260264D01*
X290455Y259008D01*
X291591Y257724D01*
X292695Y256412D01*
X293766Y255074D01*
X294804Y253710D01*
X295808Y252320D01*
X296778Y250907D01*
X297713Y249470D01*
X298612Y248010D01*
X299476Y246529D01*
X300302Y245027D01*
X301092Y243505D01*
X301844Y241965D01*
X302558Y240406D01*
X303233Y238830D01*
X303870Y237239D01*
X304467Y235632D01*
X305025Y234011D01*
X305542Y232376D01*
X306020Y230730D01*
X306457Y229072D01*
X306853Y227404D01*
X307208Y225727D01*
X307522Y224042D01*
X307794Y222349D01*
X308025Y220650D01*
X308214Y218946D01*
X308361Y217238D01*
X308466Y215527D01*
X308529Y213814D01*
X308550Y212100D01*
X308529Y210386D01*
X308466Y208673D01*
X308361Y206962D01*
X308214Y205254D01*
X308025Y203550D01*
X307794Y201851D01*
X307522Y200158D01*
X307208Y198473D01*
X306853Y196796D01*
X306457Y195128D01*
X306020Y193470D01*
X305542Y191824D01*
X305025Y190189D01*
X304467Y188568D01*
X303870Y186961D01*
X303233Y185370D01*
X302558Y183794D01*
X301844Y182235D01*
X301092Y180695D01*
X300302Y179173D01*
X299476Y177671D01*
X298612Y176190D01*
X297713Y174730D01*
X296778Y173293D01*
X295808Y171880D01*
X294804Y170490D01*
X293766Y169126D01*
X292695Y167788D01*
X291591Y166476D01*
X290455Y165192D01*
X289289Y163936D01*
X288091Y162709D01*
X286864Y161511D01*
X285608Y160345D01*
X284324Y159209D01*
X283012Y158105D01*
X281674Y157034D01*
X280310Y155996D01*
X278920Y154992D01*
X277507Y154022D01*
X276070Y153087D01*
X274610Y152188D01*
X273129Y151324D01*
X271627Y150498D01*
X270105Y149708D01*
X268565Y148956D01*
X267006Y148242D01*
X265430Y147567D01*
X263839Y146930D01*
X262232Y146333D01*
X260611Y145775D01*
X258976Y145258D01*
X257330Y144780D01*
X255672Y144343D01*
X254004Y143947D01*
X252327Y143592D01*
X250642Y143278D01*
X248949Y143006D01*
X247250Y142775D01*
X245546Y142586D01*
X243838Y142439D01*
X242127Y142334D01*
X240414Y142271D01*
X238700Y142250D01*
X236986Y142271D01*
X235273Y142334D01*
X233562Y142439D01*
X231854Y142586D01*
X230150Y142775D01*
X228451Y143006D01*
X226758Y143278D01*
X225073Y143592D01*
X223396Y143947D01*
X221728Y144343D01*
X220070Y144780D01*
X218424Y145258D01*
X216789Y145775D01*
X215168Y146333D01*
X213561Y146930D01*
X211970Y147567D01*
X210394Y148242D01*
X208835Y148956D01*
X207295Y149708D01*
X205773Y150498D01*
X204271Y151324D01*
X202790Y152188D01*
X201330Y153087D01*
X199893Y154022D01*
X198480Y154992D01*
X197090Y155996D01*
X195726Y157034D01*
X194388Y158105D01*
X193076Y159209D01*
X191792Y160345D01*
X190536Y161511D01*
X189309Y162709D01*
X188111Y163936D01*
X186945Y165192D01*
X185809Y166476D01*
X184705Y167788D01*
X183634Y169126D01*
X182596Y170490D01*
X181592Y171880D01*
X180622Y173293D01*
X179687Y174730D01*
X178788Y176190D01*
X177924Y177671D01*
X177098Y179173D01*
X176308Y180695D01*
X175556Y182235D01*
X174842Y183794D01*
X174167Y185370D01*
X173530Y186961D01*
X172933Y188568D01*
X172375Y190189D01*
X171858Y191824D01*
X171380Y193470D01*
X170943Y195128D01*
X170547Y196796D01*
X170192Y198473D01*
X169878Y200158D01*
X169606Y201851D01*
X169375Y203550D01*
X169186Y205254D01*
X169039Y206962D01*
X168934Y208673D01*
X168871Y210386D01*
X168850Y212100D01*
D11*
X244415Y212100D03*
D12*
X306899Y254137D02*
X310455Y254137D01*
X306899Y254137D02*
X306783Y254139D01*
X306666Y254145D01*
X306550Y254154D01*
X306435Y254167D01*
X306320Y254184D01*
X306205Y254205D01*
X306092Y254230D01*
X305979Y254258D01*
X305867Y254290D01*
X305756Y254326D01*
X305646Y254365D01*
X305538Y254408D01*
X305431Y254454D01*
X305326Y254504D01*
X305223Y254557D01*
X305121Y254613D01*
X305021Y254673D01*
X304923Y254736D01*
X304828Y254803D01*
X304734Y254872D01*
X304643Y254944D01*
X304554Y255019D01*
X304468Y255098D01*
X304385Y255179D01*
X304304Y255262D01*
X304225Y255348D01*
X304150Y255437D01*
X304078Y255528D01*
X304009Y255622D01*
X303942Y255717D01*
X303879Y255815D01*
X303819Y255915D01*
X303763Y256017D01*
X303710Y256120D01*
X303660Y256225D01*
X303614Y256332D01*
X303571Y256440D01*
X303532Y256550D01*
X303496Y256661D01*
X303464Y256773D01*
X303436Y256886D01*
X303411Y256999D01*
X303390Y257114D01*
X303373Y257229D01*
X303360Y257344D01*
X303351Y257460D01*
X303345Y257577D01*
X303343Y257693D01*
X303343Y266583D01*
X303345Y266699D01*
X303351Y266816D01*
X303360Y266932D01*
X303373Y267047D01*
X303390Y267162D01*
X303411Y267277D01*
X303436Y267390D01*
X303464Y267503D01*
X303496Y267615D01*
X303532Y267726D01*
X303571Y267836D01*
X303614Y267944D01*
X303660Y268051D01*
X303710Y268156D01*
X303763Y268259D01*
X303819Y268361D01*
X303879Y268461D01*
X303942Y268559D01*
X304009Y268654D01*
X304078Y268748D01*
X304150Y268839D01*
X304225Y268928D01*
X304304Y269014D01*
X304385Y269097D01*
X304468Y269178D01*
X304554Y269257D01*
X304643Y269332D01*
X304734Y269404D01*
X304828Y269473D01*
X304923Y269540D01*
X305021Y269603D01*
X305121Y269663D01*
X305223Y269719D01*
X305326Y269772D01*
X305431Y269822D01*
X305538Y269868D01*
X305646Y269911D01*
X305756Y269950D01*
X305867Y269986D01*
X305979Y270018D01*
X306092Y270046D01*
X306205Y270071D01*
X306320Y270092D01*
X306435Y270109D01*
X306550Y270122D01*
X306666Y270131D01*
X306783Y270137D01*
X306899Y270139D01*
X310455Y270139D01*
X316413Y266583D02*
X320858Y270139D01*
X320858Y254137D01*
X316413Y254137D02*
X325303Y254137D01*
D13*
X335604Y235808D02*
X338201Y235808D01*
X335604Y235808D02*
X335505Y235810D01*
X335405Y235816D01*
X335306Y235825D01*
X335208Y235838D01*
X335110Y235855D01*
X335012Y235876D01*
X334916Y235901D01*
X334821Y235929D01*
X334727Y235961D01*
X334634Y235996D01*
X334542Y236035D01*
X334452Y236078D01*
X334364Y236123D01*
X334277Y236173D01*
X334193Y236225D01*
X334110Y236281D01*
X334030Y236339D01*
X333952Y236401D01*
X333877Y236466D01*
X333804Y236534D01*
X333734Y236604D01*
X333666Y236677D01*
X333601Y236752D01*
X333539Y236830D01*
X333481Y236910D01*
X333425Y236993D01*
X333373Y237077D01*
X333323Y237164D01*
X333278Y237252D01*
X333235Y237342D01*
X333196Y237434D01*
X333161Y237527D01*
X333129Y237621D01*
X333101Y237716D01*
X333076Y237812D01*
X333055Y237910D01*
X333038Y238008D01*
X333025Y238106D01*
X333016Y238205D01*
X333010Y238305D01*
X333008Y238404D01*
X333008Y244896D01*
X333010Y244995D01*
X333016Y245095D01*
X333025Y245194D01*
X333038Y245292D01*
X333055Y245390D01*
X333076Y245488D01*
X333101Y245584D01*
X333129Y245679D01*
X333161Y245773D01*
X333196Y245866D01*
X333235Y245958D01*
X333278Y246048D01*
X333323Y246136D01*
X333373Y246223D01*
X333425Y246307D01*
X333481Y246390D01*
X333539Y246470D01*
X333601Y246548D01*
X333666Y246623D01*
X333734Y246696D01*
X333804Y246766D01*
X333877Y246834D01*
X333952Y246899D01*
X334030Y246961D01*
X334110Y247019D01*
X334193Y247075D01*
X334277Y247127D01*
X334364Y247177D01*
X334452Y247222D01*
X334542Y247265D01*
X334634Y247304D01*
X334726Y247339D01*
X334821Y247371D01*
X334916Y247399D01*
X335012Y247424D01*
X335110Y247445D01*
X335208Y247462D01*
X335306Y247475D01*
X335405Y247484D01*
X335505Y247490D01*
X335604Y247492D01*
X338201Y247492D01*
X346136Y247492D02*
X346243Y247490D01*
X346349Y247484D01*
X346455Y247474D01*
X346561Y247461D01*
X346667Y247443D01*
X346771Y247422D01*
X346875Y247397D01*
X346978Y247368D01*
X347079Y247336D01*
X347179Y247299D01*
X347278Y247259D01*
X347376Y247216D01*
X347472Y247169D01*
X347566Y247118D01*
X347658Y247064D01*
X347748Y247007D01*
X347836Y246947D01*
X347921Y246883D01*
X348004Y246816D01*
X348085Y246746D01*
X348163Y246674D01*
X348239Y246598D01*
X348311Y246520D01*
X348381Y246439D01*
X348448Y246356D01*
X348512Y246271D01*
X348572Y246183D01*
X348629Y246093D01*
X348683Y246001D01*
X348734Y245907D01*
X348781Y245811D01*
X348824Y245713D01*
X348864Y245614D01*
X348901Y245514D01*
X348933Y245413D01*
X348962Y245310D01*
X348987Y245206D01*
X349008Y245102D01*
X349026Y244996D01*
X349039Y244890D01*
X349049Y244784D01*
X349055Y244678D01*
X349057Y244571D01*
X346136Y247492D02*
X346015Y247490D01*
X345894Y247484D01*
X345774Y247474D01*
X345653Y247461D01*
X345534Y247443D01*
X345414Y247422D01*
X345296Y247397D01*
X345179Y247368D01*
X345062Y247335D01*
X344947Y247299D01*
X344833Y247258D01*
X344720Y247215D01*
X344608Y247167D01*
X344499Y247116D01*
X344391Y247061D01*
X344284Y247003D01*
X344180Y246942D01*
X344078Y246877D01*
X343978Y246809D01*
X343880Y246738D01*
X343784Y246664D01*
X343691Y246587D01*
X343601Y246506D01*
X343513Y246423D01*
X343428Y246337D01*
X343345Y246248D01*
X343266Y246157D01*
X343189Y246063D01*
X343116Y245967D01*
X343046Y245869D01*
X342979Y245768D01*
X342915Y245665D01*
X342855Y245560D01*
X342798Y245453D01*
X342744Y245345D01*
X342694Y245235D01*
X342648Y245123D01*
X342605Y245010D01*
X342566Y244895D01*
X348084Y242299D02*
X348163Y242376D01*
X348239Y242457D01*
X348312Y242540D01*
X348382Y242625D01*
X348449Y242713D01*
X348513Y242803D01*
X348573Y242895D01*
X348630Y242990D01*
X348684Y243086D01*
X348735Y243184D01*
X348782Y243284D01*
X348826Y243386D01*
X348866Y243489D01*
X348902Y243593D01*
X348934Y243699D01*
X348963Y243805D01*
X348988Y243913D01*
X349010Y244021D01*
X349027Y244131D01*
X349041Y244240D01*
X349050Y244350D01*
X349056Y244461D01*
X349058Y244571D01*
X348084Y242299D02*
X342566Y235808D01*
X349057Y235808D01*
X334701Y185808D02*
X332104Y185808D01*
X332005Y185810D01*
X331905Y185816D01*
X331806Y185825D01*
X331708Y185838D01*
X331610Y185855D01*
X331512Y185876D01*
X331416Y185901D01*
X331321Y185929D01*
X331227Y185961D01*
X331134Y185996D01*
X331042Y186035D01*
X330952Y186078D01*
X330864Y186123D01*
X330777Y186173D01*
X330693Y186225D01*
X330610Y186281D01*
X330530Y186339D01*
X330452Y186401D01*
X330377Y186466D01*
X330304Y186534D01*
X330234Y186604D01*
X330166Y186677D01*
X330101Y186752D01*
X330039Y186830D01*
X329981Y186910D01*
X329925Y186993D01*
X329873Y187077D01*
X329823Y187164D01*
X329778Y187252D01*
X329735Y187342D01*
X329696Y187434D01*
X329661Y187527D01*
X329629Y187621D01*
X329601Y187716D01*
X329576Y187812D01*
X329555Y187910D01*
X329538Y188008D01*
X329525Y188106D01*
X329516Y188205D01*
X329510Y188305D01*
X329508Y188404D01*
X329508Y194896D01*
X329510Y194995D01*
X329516Y195095D01*
X329525Y195194D01*
X329538Y195292D01*
X329555Y195390D01*
X329576Y195488D01*
X329601Y195584D01*
X329629Y195679D01*
X329661Y195773D01*
X329696Y195866D01*
X329735Y195958D01*
X329778Y196048D01*
X329823Y196136D01*
X329873Y196223D01*
X329925Y196307D01*
X329981Y196390D01*
X330039Y196470D01*
X330101Y196548D01*
X330166Y196623D01*
X330234Y196696D01*
X330304Y196766D01*
X330377Y196834D01*
X330452Y196899D01*
X330530Y196961D01*
X330610Y197019D01*
X330693Y197075D01*
X330777Y197127D01*
X330864Y197177D01*
X330952Y197222D01*
X331042Y197265D01*
X331134Y197304D01*
X331226Y197339D01*
X331321Y197371D01*
X331416Y197399D01*
X331512Y197424D01*
X331610Y197445D01*
X331708Y197462D01*
X331806Y197475D01*
X331905Y197484D01*
X332005Y197490D01*
X332104Y197492D01*
X334701Y197492D01*
X339066Y185808D02*
X342312Y185808D01*
X342425Y185810D01*
X342538Y185816D01*
X342651Y185826D01*
X342764Y185840D01*
X342876Y185857D01*
X342987Y185879D01*
X343097Y185904D01*
X343207Y185934D01*
X343315Y185967D01*
X343422Y186004D01*
X343528Y186044D01*
X343632Y186089D01*
X343735Y186137D01*
X343836Y186188D01*
X343935Y186243D01*
X344032Y186301D01*
X344127Y186363D01*
X344220Y186428D01*
X344310Y186496D01*
X344398Y186567D01*
X344484Y186642D01*
X344567Y186719D01*
X344647Y186799D01*
X344724Y186882D01*
X344799Y186968D01*
X344870Y187056D01*
X344938Y187146D01*
X345003Y187239D01*
X345065Y187334D01*
X345123Y187431D01*
X345178Y187530D01*
X345229Y187631D01*
X345277Y187734D01*
X345322Y187838D01*
X345362Y187944D01*
X345399Y188051D01*
X345432Y188159D01*
X345462Y188269D01*
X345487Y188379D01*
X345509Y188490D01*
X345526Y188602D01*
X345540Y188715D01*
X345550Y188828D01*
X345556Y188941D01*
X345558Y189054D01*
X345556Y189167D01*
X345550Y189280D01*
X345540Y189393D01*
X345526Y189506D01*
X345509Y189618D01*
X345487Y189729D01*
X345462Y189839D01*
X345432Y189949D01*
X345399Y190057D01*
X345362Y190164D01*
X345322Y190270D01*
X345277Y190374D01*
X345229Y190477D01*
X345178Y190578D01*
X345123Y190677D01*
X345065Y190774D01*
X345003Y190869D01*
X344938Y190962D01*
X344870Y191052D01*
X344799Y191140D01*
X344724Y191226D01*
X344647Y191309D01*
X344567Y191389D01*
X344484Y191466D01*
X344398Y191541D01*
X344310Y191612D01*
X344220Y191680D01*
X344127Y191745D01*
X344032Y191807D01*
X343935Y191865D01*
X343836Y191920D01*
X343735Y191971D01*
X343632Y192019D01*
X343528Y192064D01*
X343422Y192104D01*
X343315Y192141D01*
X343207Y192174D01*
X343097Y192204D01*
X342987Y192229D01*
X342876Y192251D01*
X342764Y192268D01*
X342651Y192282D01*
X342538Y192292D01*
X342425Y192298D01*
X342312Y192300D01*
X342961Y197492D02*
X339066Y197492D01*
X342961Y197492D02*
X343062Y197490D01*
X343162Y197484D01*
X343262Y197474D01*
X343362Y197461D01*
X343461Y197443D01*
X343560Y197422D01*
X343657Y197397D01*
X343754Y197368D01*
X343849Y197335D01*
X343943Y197299D01*
X344035Y197259D01*
X344126Y197216D01*
X344215Y197169D01*
X344302Y197119D01*
X344388Y197065D01*
X344471Y197008D01*
X344551Y196948D01*
X344630Y196885D01*
X344706Y196818D01*
X344779Y196749D01*
X344849Y196677D01*
X344917Y196603D01*
X344982Y196526D01*
X345043Y196446D01*
X345102Y196364D01*
X345157Y196280D01*
X345209Y196194D01*
X345258Y196106D01*
X345303Y196016D01*
X345345Y195924D01*
X345383Y195831D01*
X345417Y195736D01*
X345448Y195641D01*
X345475Y195544D01*
X345498Y195446D01*
X345518Y195347D01*
X345533Y195247D01*
X345545Y195147D01*
X345553Y195047D01*
X345557Y194946D01*
X345557Y194846D01*
X345553Y194745D01*
X345545Y194645D01*
X345533Y194545D01*
X345518Y194445D01*
X345498Y194346D01*
X345475Y194248D01*
X345448Y194151D01*
X345417Y194056D01*
X345383Y193961D01*
X345345Y193868D01*
X345303Y193776D01*
X345258Y193686D01*
X345209Y193598D01*
X345157Y193512D01*
X345102Y193428D01*
X345043Y193346D01*
X344982Y193266D01*
X344917Y193189D01*
X344849Y193115D01*
X344779Y193043D01*
X344706Y192974D01*
X344630Y192907D01*
X344551Y192844D01*
X344471Y192784D01*
X344388Y192727D01*
X344302Y192673D01*
X344215Y192623D01*
X344126Y192576D01*
X344035Y192533D01*
X343943Y192493D01*
X343849Y192457D01*
X343754Y192424D01*
X343657Y192395D01*
X343560Y192370D01*
X343461Y192349D01*
X343362Y192331D01*
X343262Y192318D01*
X343162Y192308D01*
X343062Y192302D01*
X342961Y192300D01*
X342961Y192299D02*
X340364Y192299D01*
X333001Y123208D02*
X330404Y123208D01*
X330305Y123210D01*
X330205Y123216D01*
X330106Y123225D01*
X330008Y123238D01*
X329910Y123255D01*
X329812Y123276D01*
X329716Y123301D01*
X329621Y123329D01*
X329527Y123361D01*
X329434Y123396D01*
X329342Y123435D01*
X329252Y123478D01*
X329164Y123523D01*
X329077Y123573D01*
X328993Y123625D01*
X328910Y123681D01*
X328830Y123739D01*
X328752Y123801D01*
X328677Y123866D01*
X328604Y123934D01*
X328534Y124004D01*
X328466Y124077D01*
X328401Y124152D01*
X328339Y124230D01*
X328281Y124310D01*
X328225Y124393D01*
X328173Y124477D01*
X328123Y124564D01*
X328078Y124652D01*
X328035Y124742D01*
X327996Y124834D01*
X327961Y124927D01*
X327929Y125021D01*
X327901Y125116D01*
X327876Y125212D01*
X327855Y125310D01*
X327838Y125408D01*
X327825Y125506D01*
X327816Y125605D01*
X327810Y125705D01*
X327808Y125804D01*
X327808Y132296D01*
X327810Y132395D01*
X327816Y132495D01*
X327825Y132594D01*
X327838Y132692D01*
X327855Y132790D01*
X327876Y132888D01*
X327901Y132984D01*
X327929Y133079D01*
X327961Y133173D01*
X327996Y133266D01*
X328035Y133358D01*
X328078Y133448D01*
X328123Y133536D01*
X328173Y133623D01*
X328225Y133707D01*
X328281Y133790D01*
X328339Y133870D01*
X328401Y133948D01*
X328466Y134023D01*
X328534Y134096D01*
X328604Y134166D01*
X328677Y134234D01*
X328752Y134299D01*
X328830Y134361D01*
X328910Y134419D01*
X328993Y134475D01*
X329077Y134527D01*
X329164Y134577D01*
X329252Y134622D01*
X329342Y134665D01*
X329434Y134704D01*
X329526Y134739D01*
X329621Y134771D01*
X329716Y134799D01*
X329812Y134824D01*
X329910Y134845D01*
X330008Y134862D01*
X330106Y134875D01*
X330205Y134884D01*
X330305Y134890D01*
X330404Y134892D01*
X333001Y134892D01*
X339963Y134892D02*
X337366Y125804D01*
X343857Y125804D01*
X341910Y128401D02*
X341910Y123208D01*
D10*
X99820Y83700D02*
X59180Y83700D01*
X99820Y83700D02*
X99820Y109100D01*
X59180Y109100D01*
X59180Y83700D01*
X73150Y96400D02*
X79500Y96400D01*
X89660Y102750D02*
X89660Y90050D01*
X79500Y96400D01*
X94740Y96400D01*
X89660Y102750D02*
X79500Y96400D01*
X79500Y102750D01*
X79500Y96400D02*
X79500Y90050D01*
D14*
X65530Y96400D03*
D15*
X109345Y96400D03*
X49655Y96400D03*
D16*
X59815Y113545D02*
X59815Y124975D01*
X62990Y124975D01*
X63101Y124973D01*
X63211Y124967D01*
X63322Y124958D01*
X63432Y124944D01*
X63541Y124927D01*
X63650Y124906D01*
X63758Y124881D01*
X63865Y124852D01*
X63971Y124820D01*
X64076Y124784D01*
X64179Y124744D01*
X64281Y124701D01*
X64382Y124654D01*
X64481Y124603D01*
X64578Y124550D01*
X64672Y124493D01*
X64765Y124432D01*
X64856Y124369D01*
X64945Y124302D01*
X65031Y124232D01*
X65114Y124159D01*
X65196Y124084D01*
X65274Y124006D01*
X65349Y123924D01*
X65422Y123841D01*
X65492Y123755D01*
X65559Y123666D01*
X65622Y123575D01*
X65683Y123482D01*
X65740Y123388D01*
X65793Y123291D01*
X65844Y123192D01*
X65891Y123091D01*
X65934Y122989D01*
X65974Y122886D01*
X66010Y122781D01*
X66042Y122675D01*
X66071Y122568D01*
X66096Y122460D01*
X66117Y122351D01*
X66134Y122242D01*
X66148Y122132D01*
X66157Y122021D01*
X66163Y121911D01*
X66165Y121800D01*
X66165Y116720D01*
X66163Y116609D01*
X66157Y116499D01*
X66148Y116388D01*
X66134Y116278D01*
X66117Y116169D01*
X66096Y116060D01*
X66071Y115952D01*
X66042Y115845D01*
X66010Y115739D01*
X65974Y115634D01*
X65934Y115531D01*
X65891Y115429D01*
X65844Y115328D01*
X65793Y115229D01*
X65740Y115132D01*
X65683Y115038D01*
X65622Y114945D01*
X65559Y114854D01*
X65492Y114765D01*
X65422Y114679D01*
X65349Y114596D01*
X65274Y114514D01*
X65196Y114436D01*
X65114Y114361D01*
X65031Y114288D01*
X64945Y114218D01*
X64856Y114151D01*
X64765Y114088D01*
X64672Y114027D01*
X64577Y113970D01*
X64481Y113917D01*
X64382Y113866D01*
X64281Y113819D01*
X64179Y113776D01*
X64076Y113736D01*
X63971Y113700D01*
X63865Y113668D01*
X63758Y113639D01*
X63650Y113614D01*
X63541Y113593D01*
X63432Y113576D01*
X63322Y113562D01*
X63211Y113553D01*
X63101Y113547D01*
X62990Y113545D01*
X59815Y113545D01*
X71626Y122435D02*
X74801Y124975D01*
X74801Y113545D01*
X71626Y113545D02*
X77976Y113545D01*
D10*
X192180Y83700D02*
X232820Y83700D01*
X232820Y109100D01*
X192180Y109100D01*
X192180Y83700D01*
X206150Y96400D02*
X212500Y96400D01*
X222660Y102750D02*
X222660Y90050D01*
X212500Y96400D01*
X227740Y96400D01*
X222660Y102750D02*
X212500Y96400D01*
X212500Y102750D01*
X212500Y96400D02*
X212500Y90050D01*
D14*
X198530Y96400D03*
D15*
X242345Y96400D03*
X182655Y96400D03*
D16*
X192815Y113545D02*
X192815Y124975D01*
X195990Y124975D01*
X196101Y124973D01*
X196211Y124967D01*
X196322Y124958D01*
X196432Y124944D01*
X196541Y124927D01*
X196650Y124906D01*
X196758Y124881D01*
X196865Y124852D01*
X196971Y124820D01*
X197076Y124784D01*
X197179Y124744D01*
X197281Y124701D01*
X197382Y124654D01*
X197481Y124603D01*
X197578Y124550D01*
X197672Y124493D01*
X197765Y124432D01*
X197856Y124369D01*
X197945Y124302D01*
X198031Y124232D01*
X198114Y124159D01*
X198196Y124084D01*
X198274Y124006D01*
X198349Y123924D01*
X198422Y123841D01*
X198492Y123755D01*
X198559Y123666D01*
X198622Y123575D01*
X198683Y123482D01*
X198740Y123388D01*
X198793Y123291D01*
X198844Y123192D01*
X198891Y123091D01*
X198934Y122989D01*
X198974Y122886D01*
X199010Y122781D01*
X199042Y122675D01*
X199071Y122568D01*
X199096Y122460D01*
X199117Y122351D01*
X199134Y122242D01*
X199148Y122132D01*
X199157Y122021D01*
X199163Y121911D01*
X199165Y121800D01*
X199165Y116720D01*
X199163Y116609D01*
X199157Y116499D01*
X199148Y116388D01*
X199134Y116278D01*
X199117Y116169D01*
X199096Y116060D01*
X199071Y115952D01*
X199042Y115845D01*
X199010Y115739D01*
X198974Y115634D01*
X198934Y115531D01*
X198891Y115429D01*
X198844Y115328D01*
X198793Y115229D01*
X198740Y115132D01*
X198683Y115038D01*
X198622Y114945D01*
X198559Y114854D01*
X198492Y114765D01*
X198422Y114679D01*
X198349Y114596D01*
X198274Y114514D01*
X198196Y114436D01*
X198114Y114361D01*
X198031Y114288D01*
X197945Y114218D01*
X197856Y114151D01*
X197765Y114088D01*
X197672Y114027D01*
X197577Y113970D01*
X197481Y113917D01*
X197382Y113866D01*
X197281Y113819D01*
X197179Y113776D01*
X197076Y113736D01*
X196971Y113700D01*
X196865Y113668D01*
X196758Y113639D01*
X196650Y113614D01*
X196541Y113593D01*
X196432Y113576D01*
X196322Y113562D01*
X196211Y113553D01*
X196101Y113547D01*
X195990Y113545D01*
X192815Y113545D01*
X208119Y124976D02*
X208223Y124974D01*
X208328Y124968D01*
X208432Y124959D01*
X208535Y124946D01*
X208638Y124928D01*
X208740Y124908D01*
X208842Y124883D01*
X208942Y124855D01*
X209042Y124823D01*
X209140Y124787D01*
X209237Y124748D01*
X209332Y124706D01*
X209426Y124660D01*
X209518Y124610D01*
X209608Y124558D01*
X209696Y124502D01*
X209782Y124442D01*
X209866Y124380D01*
X209947Y124315D01*
X210026Y124247D01*
X210103Y124175D01*
X210176Y124102D01*
X210248Y124025D01*
X210316Y123946D01*
X210381Y123865D01*
X210443Y123781D01*
X210503Y123695D01*
X210559Y123607D01*
X210611Y123517D01*
X210661Y123425D01*
X210707Y123331D01*
X210749Y123236D01*
X210788Y123139D01*
X210824Y123041D01*
X210856Y122941D01*
X210884Y122841D01*
X210909Y122739D01*
X210929Y122637D01*
X210947Y122534D01*
X210960Y122431D01*
X210969Y122327D01*
X210975Y122222D01*
X210977Y122118D01*
X208119Y124975D02*
X208001Y124973D01*
X207882Y124967D01*
X207764Y124958D01*
X207647Y124945D01*
X207530Y124927D01*
X207413Y124907D01*
X207297Y124882D01*
X207182Y124854D01*
X207069Y124821D01*
X206956Y124786D01*
X206844Y124746D01*
X206734Y124704D01*
X206625Y124657D01*
X206517Y124607D01*
X206412Y124554D01*
X206308Y124497D01*
X206206Y124437D01*
X206106Y124374D01*
X206008Y124307D01*
X205912Y124238D01*
X205819Y124165D01*
X205728Y124089D01*
X205639Y124011D01*
X205553Y123929D01*
X205470Y123845D01*
X205389Y123759D01*
X205312Y123669D01*
X205237Y123578D01*
X205165Y123484D01*
X205096Y123387D01*
X205031Y123289D01*
X204968Y123188D01*
X204909Y123085D01*
X204853Y122981D01*
X204801Y122875D01*
X204752Y122767D01*
X204707Y122658D01*
X204665Y122547D01*
X204627Y122435D01*
X210024Y119896D02*
X210100Y119971D01*
X210175Y120050D01*
X210246Y120131D01*
X210315Y120215D01*
X210380Y120301D01*
X210442Y120389D01*
X210502Y120479D01*
X210558Y120571D01*
X210611Y120666D01*
X210660Y120762D01*
X210706Y120860D01*
X210749Y120959D01*
X210788Y121060D01*
X210823Y121162D01*
X210855Y121265D01*
X210883Y121369D01*
X210908Y121474D01*
X210929Y121581D01*
X210946Y121687D01*
X210959Y121794D01*
X210968Y121902D01*
X210974Y122010D01*
X210976Y122118D01*
X210024Y119895D02*
X204626Y113545D01*
X210976Y113545D01*
D10*
X100320Y17300D02*
X59680Y17300D01*
X100320Y17300D02*
X100320Y42700D01*
X59680Y42700D01*
X59680Y17300D01*
X73650Y30000D02*
X80000Y30000D01*
X90160Y36350D02*
X90160Y23650D01*
X80000Y30000D01*
X95240Y30000D01*
X90160Y36350D02*
X80000Y30000D01*
X80000Y36350D01*
X80000Y30000D02*
X80000Y23650D01*
D14*
X66030Y30000D03*
D15*
X109845Y30000D03*
X50155Y30000D03*
D16*
X60315Y47145D02*
X60315Y58575D01*
X63490Y58575D01*
X63601Y58573D01*
X63711Y58567D01*
X63822Y58558D01*
X63932Y58544D01*
X64041Y58527D01*
X64150Y58506D01*
X64258Y58481D01*
X64365Y58452D01*
X64471Y58420D01*
X64576Y58384D01*
X64679Y58344D01*
X64781Y58301D01*
X64882Y58254D01*
X64981Y58203D01*
X65078Y58150D01*
X65172Y58093D01*
X65265Y58032D01*
X65356Y57969D01*
X65445Y57902D01*
X65531Y57832D01*
X65614Y57759D01*
X65696Y57684D01*
X65774Y57606D01*
X65849Y57524D01*
X65922Y57441D01*
X65992Y57355D01*
X66059Y57266D01*
X66122Y57175D01*
X66183Y57082D01*
X66240Y56988D01*
X66293Y56891D01*
X66344Y56792D01*
X66391Y56691D01*
X66434Y56589D01*
X66474Y56486D01*
X66510Y56381D01*
X66542Y56275D01*
X66571Y56168D01*
X66596Y56060D01*
X66617Y55951D01*
X66634Y55842D01*
X66648Y55732D01*
X66657Y55621D01*
X66663Y55511D01*
X66665Y55400D01*
X66665Y50320D01*
X66663Y50209D01*
X66657Y50099D01*
X66648Y49988D01*
X66634Y49878D01*
X66617Y49769D01*
X66596Y49660D01*
X66571Y49552D01*
X66542Y49445D01*
X66510Y49339D01*
X66474Y49234D01*
X66434Y49131D01*
X66391Y49029D01*
X66344Y48928D01*
X66293Y48829D01*
X66240Y48732D01*
X66183Y48638D01*
X66122Y48545D01*
X66059Y48454D01*
X65992Y48365D01*
X65922Y48279D01*
X65849Y48196D01*
X65774Y48114D01*
X65696Y48036D01*
X65614Y47961D01*
X65531Y47888D01*
X65445Y47818D01*
X65356Y47751D01*
X65265Y47688D01*
X65172Y47627D01*
X65077Y47570D01*
X64981Y47517D01*
X64882Y47466D01*
X64781Y47419D01*
X64679Y47376D01*
X64576Y47336D01*
X64471Y47300D01*
X64365Y47268D01*
X64258Y47239D01*
X64150Y47214D01*
X64041Y47193D01*
X63932Y47176D01*
X63822Y47162D01*
X63711Y47153D01*
X63601Y47147D01*
X63490Y47145D01*
X60315Y47145D01*
X72126Y47145D02*
X75301Y47145D01*
X75412Y47147D01*
X75522Y47153D01*
X75633Y47162D01*
X75743Y47176D01*
X75852Y47193D01*
X75961Y47214D01*
X76069Y47239D01*
X76176Y47268D01*
X76282Y47300D01*
X76387Y47336D01*
X76490Y47376D01*
X76592Y47419D01*
X76693Y47466D01*
X76792Y47517D01*
X76888Y47570D01*
X76983Y47627D01*
X77076Y47688D01*
X77167Y47751D01*
X77256Y47818D01*
X77342Y47888D01*
X77425Y47961D01*
X77507Y48036D01*
X77585Y48114D01*
X77660Y48196D01*
X77733Y48279D01*
X77803Y48365D01*
X77870Y48454D01*
X77933Y48545D01*
X77994Y48638D01*
X78051Y48732D01*
X78104Y48829D01*
X78155Y48928D01*
X78202Y49029D01*
X78245Y49131D01*
X78285Y49234D01*
X78321Y49339D01*
X78353Y49445D01*
X78382Y49552D01*
X78407Y49660D01*
X78428Y49769D01*
X78445Y49878D01*
X78459Y49988D01*
X78468Y50099D01*
X78474Y50209D01*
X78476Y50320D01*
X78474Y50431D01*
X78468Y50541D01*
X78459Y50652D01*
X78445Y50762D01*
X78428Y50871D01*
X78407Y50980D01*
X78382Y51088D01*
X78353Y51195D01*
X78321Y51301D01*
X78285Y51406D01*
X78245Y51509D01*
X78202Y51611D01*
X78155Y51712D01*
X78104Y51811D01*
X78051Y51907D01*
X77994Y52002D01*
X77933Y52095D01*
X77870Y52186D01*
X77803Y52275D01*
X77733Y52361D01*
X77660Y52444D01*
X77585Y52526D01*
X77507Y52604D01*
X77425Y52679D01*
X77342Y52752D01*
X77256Y52822D01*
X77167Y52889D01*
X77076Y52952D01*
X76983Y53013D01*
X76889Y53070D01*
X76792Y53123D01*
X76693Y53174D01*
X76592Y53221D01*
X76490Y53264D01*
X76387Y53304D01*
X76282Y53340D01*
X76176Y53372D01*
X76069Y53401D01*
X75961Y53426D01*
X75852Y53447D01*
X75743Y53464D01*
X75633Y53478D01*
X75522Y53487D01*
X75412Y53493D01*
X75301Y53495D01*
X75936Y58575D02*
X72126Y58575D01*
X75936Y58575D02*
X76036Y58573D01*
X76135Y58567D01*
X76235Y58557D01*
X76333Y58544D01*
X76432Y58526D01*
X76529Y58505D01*
X76625Y58480D01*
X76721Y58451D01*
X76815Y58418D01*
X76908Y58382D01*
X76999Y58342D01*
X77089Y58298D01*
X77177Y58251D01*
X77263Y58201D01*
X77347Y58147D01*
X77429Y58090D01*
X77508Y58030D01*
X77586Y57966D01*
X77660Y57900D01*
X77732Y57831D01*
X77801Y57759D01*
X77867Y57685D01*
X77931Y57607D01*
X77991Y57528D01*
X78048Y57446D01*
X78102Y57362D01*
X78152Y57276D01*
X78199Y57188D01*
X78243Y57098D01*
X78283Y57007D01*
X78319Y56914D01*
X78352Y56820D01*
X78381Y56724D01*
X78406Y56628D01*
X78427Y56531D01*
X78445Y56432D01*
X78458Y56334D01*
X78468Y56234D01*
X78474Y56135D01*
X78476Y56035D01*
X78474Y55935D01*
X78468Y55836D01*
X78458Y55736D01*
X78445Y55638D01*
X78427Y55539D01*
X78406Y55442D01*
X78381Y55346D01*
X78352Y55250D01*
X78319Y55156D01*
X78283Y55063D01*
X78243Y54972D01*
X78199Y54882D01*
X78152Y54794D01*
X78102Y54708D01*
X78048Y54624D01*
X77991Y54542D01*
X77931Y54463D01*
X77867Y54385D01*
X77801Y54311D01*
X77732Y54239D01*
X77660Y54170D01*
X77586Y54104D01*
X77508Y54040D01*
X77429Y53980D01*
X77347Y53923D01*
X77263Y53869D01*
X77177Y53819D01*
X77089Y53772D01*
X76999Y53728D01*
X76908Y53688D01*
X76815Y53652D01*
X76721Y53619D01*
X76625Y53590D01*
X76529Y53565D01*
X76432Y53544D01*
X76333Y53526D01*
X76235Y53513D01*
X76135Y53503D01*
X76036Y53497D01*
X75936Y53495D01*
X73396Y53495D01*
D10*
X199180Y19900D02*
X239820Y19900D01*
X239820Y45300D01*
X199180Y45300D01*
X199180Y19900D01*
X213150Y32600D02*
X219500Y32600D01*
X229660Y38950D02*
X229660Y26250D01*
X219500Y32600D01*
X234740Y32600D01*
X229660Y38950D02*
X219500Y32600D01*
X219500Y38950D01*
X219500Y32600D02*
X219500Y26250D01*
D14*
X205530Y32600D03*
D15*
X249345Y32600D03*
X189655Y32600D03*
D16*
X199815Y49745D02*
X199815Y61175D01*
X202990Y61175D01*
X203101Y61173D01*
X203211Y61167D01*
X203322Y61158D01*
X203432Y61144D01*
X203541Y61127D01*
X203650Y61106D01*
X203758Y61081D01*
X203865Y61052D01*
X203971Y61020D01*
X204076Y60984D01*
X204179Y60944D01*
X204281Y60901D01*
X204382Y60854D01*
X204481Y60803D01*
X204578Y60750D01*
X204672Y60693D01*
X204765Y60632D01*
X204856Y60569D01*
X204945Y60502D01*
X205031Y60432D01*
X205114Y60359D01*
X205196Y60284D01*
X205274Y60206D01*
X205349Y60124D01*
X205422Y60041D01*
X205492Y59955D01*
X205559Y59866D01*
X205622Y59775D01*
X205683Y59682D01*
X205740Y59588D01*
X205793Y59491D01*
X205844Y59392D01*
X205891Y59291D01*
X205934Y59189D01*
X205974Y59086D01*
X206010Y58981D01*
X206042Y58875D01*
X206071Y58768D01*
X206096Y58660D01*
X206117Y58551D01*
X206134Y58442D01*
X206148Y58332D01*
X206157Y58221D01*
X206163Y58111D01*
X206165Y58000D01*
X206165Y52920D01*
X206163Y52809D01*
X206157Y52699D01*
X206148Y52588D01*
X206134Y52478D01*
X206117Y52369D01*
X206096Y52260D01*
X206071Y52152D01*
X206042Y52045D01*
X206010Y51939D01*
X205974Y51834D01*
X205934Y51731D01*
X205891Y51629D01*
X205844Y51528D01*
X205793Y51429D01*
X205740Y51332D01*
X205683Y51238D01*
X205622Y51145D01*
X205559Y51054D01*
X205492Y50965D01*
X205422Y50879D01*
X205349Y50796D01*
X205274Y50714D01*
X205196Y50636D01*
X205114Y50561D01*
X205031Y50488D01*
X204945Y50418D01*
X204856Y50351D01*
X204765Y50288D01*
X204672Y50227D01*
X204577Y50170D01*
X204481Y50117D01*
X204382Y50066D01*
X204281Y50019D01*
X204179Y49976D01*
X204076Y49936D01*
X203971Y49900D01*
X203865Y49868D01*
X203758Y49839D01*
X203650Y49814D01*
X203541Y49793D01*
X203432Y49776D01*
X203322Y49762D01*
X203211Y49753D01*
X203101Y49747D01*
X202990Y49745D01*
X199815Y49745D01*
X211626Y52285D02*
X214166Y61175D01*
X211626Y52285D02*
X217976Y52285D01*
X216071Y54825D02*
X216071Y49745D01*
D17*
X344760Y271900D02*
X344760Y348100D01*
X375240Y348100D01*
X375240Y271900D01*
X344760Y271900D01*
D16*
X341585Y306383D02*
X336759Y306383D01*
X336759Y308528D01*
X338904Y308528D02*
X338904Y306383D01*
X337831Y310936D02*
X336759Y312276D01*
X341585Y312276D01*
X341585Y310936D02*
X341585Y313617D01*
D10*
X320950Y42700D02*
X308250Y42700D01*
X320950Y42700D02*
X327300Y36350D01*
X327300Y23650D01*
X320950Y17300D01*
X327300Y36350D02*
X333650Y42700D01*
X346350Y42700D01*
X352700Y36350D01*
X352700Y23650D01*
X346350Y17300D01*
X333650Y17300D01*
X327300Y23650D01*
X301900Y23650D02*
X301900Y36350D01*
X308250Y42700D01*
X301900Y23650D02*
X308250Y17300D01*
X320950Y17300D01*
X352700Y36350D02*
X359050Y42700D01*
X371750Y42700D01*
X378100Y36350D01*
X378100Y23650D01*
X371750Y17300D01*
X359050Y17300D01*
X352700Y23650D01*
D16*
X305583Y51463D02*
X305583Y60353D01*
X305583Y51463D02*
X305581Y51363D01*
X305575Y51264D01*
X305565Y51164D01*
X305552Y51066D01*
X305534Y50967D01*
X305513Y50870D01*
X305488Y50774D01*
X305459Y50678D01*
X305426Y50584D01*
X305390Y50491D01*
X305350Y50400D01*
X305306Y50310D01*
X305259Y50222D01*
X305209Y50136D01*
X305155Y50052D01*
X305098Y49970D01*
X305038Y49891D01*
X304974Y49813D01*
X304908Y49739D01*
X304839Y49667D01*
X304767Y49598D01*
X304693Y49532D01*
X304615Y49468D01*
X304536Y49408D01*
X304454Y49351D01*
X304370Y49297D01*
X304284Y49247D01*
X304196Y49200D01*
X304106Y49156D01*
X304015Y49116D01*
X303922Y49080D01*
X303828Y49047D01*
X303732Y49018D01*
X303636Y48993D01*
X303539Y48972D01*
X303440Y48954D01*
X303342Y48941D01*
X303242Y48931D01*
X303143Y48925D01*
X303043Y48923D01*
X301773Y48923D01*
X311563Y48923D02*
X311563Y60353D01*
X314738Y60353D01*
X314849Y60351D01*
X314959Y60345D01*
X315070Y60336D01*
X315180Y60322D01*
X315289Y60305D01*
X315398Y60284D01*
X315506Y60259D01*
X315613Y60230D01*
X315719Y60198D01*
X315824Y60162D01*
X315927Y60122D01*
X316029Y60079D01*
X316130Y60032D01*
X316229Y59981D01*
X316326Y59928D01*
X316420Y59871D01*
X316513Y59810D01*
X316604Y59747D01*
X316693Y59680D01*
X316779Y59610D01*
X316862Y59537D01*
X316944Y59462D01*
X317022Y59384D01*
X317097Y59302D01*
X317170Y59219D01*
X317240Y59133D01*
X317307Y59044D01*
X317370Y58953D01*
X317431Y58860D01*
X317488Y58765D01*
X317541Y58669D01*
X317592Y58570D01*
X317639Y58469D01*
X317682Y58367D01*
X317722Y58264D01*
X317758Y58159D01*
X317790Y58053D01*
X317819Y57946D01*
X317844Y57838D01*
X317865Y57729D01*
X317882Y57620D01*
X317896Y57510D01*
X317905Y57399D01*
X317911Y57289D01*
X317913Y57178D01*
X317911Y57067D01*
X317905Y56957D01*
X317896Y56846D01*
X317882Y56736D01*
X317865Y56627D01*
X317844Y56518D01*
X317819Y56410D01*
X317790Y56303D01*
X317758Y56197D01*
X317722Y56092D01*
X317682Y55989D01*
X317639Y55887D01*
X317592Y55786D01*
X317541Y55687D01*
X317488Y55590D01*
X317431Y55496D01*
X317370Y55403D01*
X317307Y55312D01*
X317240Y55223D01*
X317170Y55137D01*
X317097Y55054D01*
X317022Y54972D01*
X316944Y54894D01*
X316862Y54819D01*
X316779Y54746D01*
X316693Y54676D01*
X316604Y54609D01*
X316513Y54546D01*
X316420Y54485D01*
X316326Y54428D01*
X316229Y54375D01*
X316130Y54324D01*
X316029Y54277D01*
X315927Y54234D01*
X315824Y54194D01*
X315719Y54158D01*
X315613Y54126D01*
X315506Y54097D01*
X315398Y54072D01*
X315289Y54051D01*
X315180Y54034D01*
X315070Y54020D01*
X314959Y54011D01*
X314849Y54005D01*
X314738Y54003D01*
X311563Y54003D01*
X322422Y57813D02*
X325597Y60353D01*
X325597Y48923D01*
X322422Y48923D02*
X328772Y48923D01*
D17*
X368890Y361458D02*
X368890Y398542D01*
X368890Y361458D02*
X351110Y361458D01*
X351110Y398542D01*
X368890Y398542D01*
D10*
X373462Y387277D02*
X380066Y387277D01*
X380066Y390212D01*
X374930Y393349D02*
X373462Y395184D01*
X380066Y395184D01*
X380066Y397018D02*
X380066Y393349D01*
D18*
X331000Y460000D03*
D13*
X317808Y473208D02*
X317808Y484892D01*
X317808Y473208D02*
X323001Y473208D01*
X327714Y473208D02*
X332907Y473208D01*
X327714Y473208D02*
X327714Y484892D01*
X332907Y484892D01*
X331609Y479699D02*
X327714Y479699D01*
X337597Y484892D02*
X337597Y473208D01*
X337597Y484892D02*
X340843Y484892D01*
X340956Y484890D01*
X341069Y484884D01*
X341182Y484874D01*
X341295Y484860D01*
X341407Y484843D01*
X341518Y484821D01*
X341628Y484796D01*
X341738Y484766D01*
X341846Y484733D01*
X341953Y484696D01*
X342059Y484656D01*
X342163Y484611D01*
X342266Y484563D01*
X342367Y484512D01*
X342466Y484457D01*
X342563Y484399D01*
X342658Y484337D01*
X342751Y484272D01*
X342841Y484204D01*
X342929Y484133D01*
X343015Y484058D01*
X343098Y483981D01*
X343178Y483901D01*
X343255Y483818D01*
X343330Y483732D01*
X343401Y483644D01*
X343469Y483554D01*
X343534Y483461D01*
X343596Y483366D01*
X343654Y483269D01*
X343709Y483170D01*
X343760Y483069D01*
X343808Y482966D01*
X343853Y482862D01*
X343893Y482756D01*
X343930Y482649D01*
X343963Y482541D01*
X343993Y482431D01*
X344018Y482321D01*
X344040Y482210D01*
X344057Y482098D01*
X344071Y481985D01*
X344081Y481872D01*
X344087Y481759D01*
X344089Y481646D01*
X344089Y476454D01*
X344087Y476341D01*
X344081Y476228D01*
X344071Y476115D01*
X344057Y476002D01*
X344040Y475890D01*
X344018Y475779D01*
X343993Y475669D01*
X343963Y475559D01*
X343930Y475451D01*
X343893Y475344D01*
X343853Y475238D01*
X343808Y475134D01*
X343760Y475031D01*
X343709Y474930D01*
X343654Y474831D01*
X343596Y474734D01*
X343534Y474639D01*
X343469Y474546D01*
X343401Y474456D01*
X343330Y474368D01*
X343255Y474282D01*
X343178Y474199D01*
X343098Y474119D01*
X343015Y474042D01*
X342929Y473967D01*
X342841Y473896D01*
X342751Y473828D01*
X342658Y473763D01*
X342563Y473701D01*
X342466Y473643D01*
X342367Y473588D01*
X342266Y473537D01*
X342163Y473489D01*
X342059Y473444D01*
X341953Y473404D01*
X341846Y473367D01*
X341738Y473334D01*
X341628Y473304D01*
X341518Y473279D01*
X341407Y473257D01*
X341295Y473240D01*
X341182Y473226D01*
X341069Y473216D01*
X340956Y473210D01*
X340843Y473208D01*
X337597Y473208D01*
X349408Y482296D02*
X352654Y484892D01*
X352654Y473208D01*
X355899Y473208D02*
X349408Y473208D01*
D17*
X16000Y273000D02*
X16000Y187000D01*
X16000Y273000D02*
X159000Y273000D01*
X159000Y257000D01*
X159000Y203000D02*
X159000Y187000D01*
X95500Y187000D02*
X16000Y187000D01*
X143000Y187000D02*
X159000Y187000D01*
D13*
X171308Y235289D02*
X182992Y235289D01*
X171308Y235289D02*
X171308Y238534D01*
X171310Y238647D01*
X171316Y238760D01*
X171326Y238873D01*
X171340Y238986D01*
X171357Y239098D01*
X171379Y239209D01*
X171404Y239319D01*
X171434Y239429D01*
X171467Y239537D01*
X171504Y239644D01*
X171544Y239750D01*
X171589Y239854D01*
X171637Y239957D01*
X171688Y240058D01*
X171743Y240157D01*
X171801Y240254D01*
X171863Y240349D01*
X171928Y240442D01*
X171996Y240532D01*
X172067Y240620D01*
X172142Y240706D01*
X172219Y240789D01*
X172299Y240869D01*
X172382Y240946D01*
X172468Y241021D01*
X172556Y241092D01*
X172646Y241160D01*
X172739Y241225D01*
X172834Y241287D01*
X172931Y241345D01*
X173030Y241400D01*
X173131Y241451D01*
X173234Y241499D01*
X173338Y241544D01*
X173444Y241584D01*
X173551Y241621D01*
X173659Y241654D01*
X173769Y241684D01*
X173879Y241709D01*
X173990Y241731D01*
X174102Y241748D01*
X174215Y241762D01*
X174328Y241772D01*
X174441Y241778D01*
X174554Y241780D01*
X174667Y241778D01*
X174780Y241772D01*
X174893Y241762D01*
X175006Y241748D01*
X175118Y241731D01*
X175229Y241709D01*
X175339Y241684D01*
X175449Y241654D01*
X175557Y241621D01*
X175664Y241584D01*
X175770Y241544D01*
X175874Y241499D01*
X175977Y241451D01*
X176078Y241400D01*
X176177Y241345D01*
X176274Y241287D01*
X176369Y241225D01*
X176462Y241160D01*
X176552Y241092D01*
X176640Y241021D01*
X176726Y240946D01*
X176809Y240869D01*
X176889Y240789D01*
X176966Y240706D01*
X177041Y240620D01*
X177112Y240532D01*
X177180Y240442D01*
X177245Y240349D01*
X177307Y240254D01*
X177365Y240157D01*
X177420Y240058D01*
X177471Y239957D01*
X177519Y239854D01*
X177564Y239750D01*
X177604Y239644D01*
X177641Y239537D01*
X177674Y239429D01*
X177704Y239319D01*
X177729Y239209D01*
X177751Y239098D01*
X177768Y238986D01*
X177782Y238873D01*
X177792Y238760D01*
X177798Y238647D01*
X177800Y238534D01*
X177799Y238534D02*
X177799Y235289D01*
X171308Y245745D02*
X182992Y248341D01*
X175203Y250938D01*
X182992Y253534D01*
X171308Y256131D01*
X171308Y261101D02*
X182992Y261101D01*
X171308Y261101D02*
X171308Y264346D01*
X171310Y264459D01*
X171316Y264572D01*
X171326Y264685D01*
X171340Y264798D01*
X171357Y264910D01*
X171379Y265021D01*
X171404Y265131D01*
X171434Y265241D01*
X171467Y265349D01*
X171504Y265456D01*
X171544Y265562D01*
X171589Y265666D01*
X171637Y265769D01*
X171688Y265870D01*
X171743Y265969D01*
X171801Y266066D01*
X171863Y266161D01*
X171928Y266254D01*
X171996Y266344D01*
X172067Y266432D01*
X172142Y266518D01*
X172219Y266601D01*
X172299Y266681D01*
X172382Y266758D01*
X172468Y266833D01*
X172556Y266904D01*
X172646Y266972D01*
X172739Y267037D01*
X172834Y267099D01*
X172931Y267157D01*
X173030Y267212D01*
X173131Y267263D01*
X173234Y267311D01*
X173338Y267356D01*
X173444Y267396D01*
X173551Y267433D01*
X173659Y267466D01*
X173769Y267496D01*
X173879Y267521D01*
X173990Y267543D01*
X174102Y267560D01*
X174215Y267574D01*
X174328Y267584D01*
X174441Y267590D01*
X174554Y267592D01*
X174667Y267590D01*
X174780Y267584D01*
X174893Y267574D01*
X175006Y267560D01*
X175118Y267543D01*
X175229Y267521D01*
X175339Y267496D01*
X175449Y267466D01*
X175557Y267433D01*
X175664Y267396D01*
X175770Y267356D01*
X175874Y267311D01*
X175977Y267263D01*
X176078Y267212D01*
X176177Y267157D01*
X176274Y267099D01*
X176369Y267037D01*
X176462Y266972D01*
X176552Y266904D01*
X176640Y266833D01*
X176726Y266758D01*
X176809Y266681D01*
X176889Y266601D01*
X176966Y266518D01*
X177041Y266432D01*
X177112Y266344D01*
X177180Y266254D01*
X177245Y266161D01*
X177307Y266066D01*
X177365Y265969D01*
X177420Y265870D01*
X177471Y265769D01*
X177519Y265666D01*
X177564Y265562D01*
X177604Y265456D01*
X177641Y265349D01*
X177674Y265241D01*
X177704Y265131D01*
X177729Y265021D01*
X177751Y264910D01*
X177768Y264798D01*
X177782Y264685D01*
X177792Y264572D01*
X177798Y264459D01*
X177800Y264346D01*
X177799Y264346D02*
X177799Y261101D01*
X177799Y264996D02*
X182992Y267592D01*
D17*
X311458Y421110D02*
X348542Y421110D01*
X311458Y421110D02*
X311458Y438890D01*
X348542Y438890D01*
X348542Y421110D01*
D10*
X336113Y416538D02*
X336113Y409934D01*
X336113Y416538D02*
X337947Y416538D01*
X338032Y416536D01*
X338116Y416530D01*
X338200Y416520D01*
X338284Y416507D01*
X338367Y416489D01*
X338449Y416468D01*
X338530Y416443D01*
X338610Y416414D01*
X338688Y416382D01*
X338764Y416346D01*
X338839Y416306D01*
X338912Y416263D01*
X338983Y416217D01*
X339052Y416168D01*
X339119Y416115D01*
X339183Y416059D01*
X339244Y416001D01*
X339302Y415940D01*
X339358Y415876D01*
X339411Y415809D01*
X339460Y415740D01*
X339506Y415669D01*
X339549Y415596D01*
X339589Y415521D01*
X339625Y415445D01*
X339657Y415367D01*
X339686Y415287D01*
X339711Y415206D01*
X339732Y415124D01*
X339750Y415041D01*
X339763Y414957D01*
X339773Y414873D01*
X339779Y414789D01*
X339781Y414704D01*
X339779Y414619D01*
X339773Y414535D01*
X339763Y414451D01*
X339750Y414367D01*
X339732Y414284D01*
X339711Y414202D01*
X339686Y414121D01*
X339657Y414041D01*
X339625Y413963D01*
X339589Y413887D01*
X339549Y413812D01*
X339506Y413739D01*
X339460Y413668D01*
X339411Y413599D01*
X339358Y413532D01*
X339302Y413468D01*
X339244Y413407D01*
X339183Y413349D01*
X339119Y413293D01*
X339052Y413240D01*
X338983Y413191D01*
X338912Y413145D01*
X338839Y413102D01*
X338764Y413062D01*
X338688Y413026D01*
X338610Y412994D01*
X338530Y412965D01*
X338449Y412940D01*
X338367Y412919D01*
X338284Y412901D01*
X338200Y412888D01*
X338116Y412878D01*
X338032Y412872D01*
X337947Y412870D01*
X337947Y412869D02*
X336113Y412869D01*
X338314Y412869D02*
X339782Y409934D01*
X343349Y415070D02*
X345184Y416538D01*
X345184Y409934D01*
X347018Y409934D02*
X343349Y409934D01*
X114450Y359200D02*
X25550Y359200D01*
X25550Y460800D02*
X114450Y460800D01*
X114450Y384600D02*
X114450Y359200D01*
X114450Y384600D02*
X120800Y384600D01*
X114450Y435400D02*
X114450Y460800D01*
X114450Y435400D02*
X120800Y435400D01*
X120800Y416350D01*
X25550Y435400D02*
X25550Y460800D01*
X25550Y435400D02*
X19200Y435400D01*
X25550Y384600D02*
X25550Y359200D01*
X25550Y384600D02*
X19200Y384600D01*
X19200Y403650D01*
X19200Y416350D02*
X25550Y416350D01*
X19200Y416350D02*
X19200Y435400D01*
X25550Y416350D02*
X25550Y403650D01*
X19200Y403650D01*
X19200Y416350D01*
X114450Y416350D02*
X120800Y416350D01*
X120800Y403650D01*
X114450Y403650D02*
X114450Y416350D01*
X114450Y403650D02*
X120800Y403650D01*
X120800Y384600D01*
X108100Y378250D02*
X108100Y441750D01*
X31900Y441750D02*
X31900Y378250D01*
X31900Y441750D02*
X35710Y441750D01*
X50950Y429050D02*
X95400Y429050D01*
X50950Y429050D02*
X44600Y429050D01*
X44600Y390950D01*
X50950Y390950D01*
X95400Y390950D01*
X95400Y429050D01*
X104290Y441750D02*
X108100Y441750D01*
X35710Y378250D02*
X31900Y378250D01*
X104290Y378250D02*
X108100Y378250D01*
X70000Y397300D02*
X70000Y422700D01*
X57300Y410000D02*
X82700Y410000D01*
X50950Y429050D02*
X50950Y390950D01*
D16*
X73175Y334816D02*
X73275Y334814D01*
X73374Y334808D01*
X73474Y334798D01*
X73572Y334785D01*
X73671Y334767D01*
X73768Y334746D01*
X73864Y334721D01*
X73960Y334692D01*
X74054Y334659D01*
X74147Y334623D01*
X74238Y334583D01*
X74328Y334539D01*
X74416Y334492D01*
X74502Y334442D01*
X74586Y334388D01*
X74668Y334331D01*
X74747Y334271D01*
X74825Y334207D01*
X74899Y334141D01*
X74971Y334072D01*
X75040Y334000D01*
X75106Y333926D01*
X75170Y333848D01*
X75230Y333769D01*
X75287Y333687D01*
X75341Y333603D01*
X75391Y333517D01*
X75438Y333429D01*
X75482Y333339D01*
X75522Y333248D01*
X75558Y333155D01*
X75591Y333061D01*
X75620Y332965D01*
X75645Y332869D01*
X75666Y332772D01*
X75684Y332673D01*
X75697Y332575D01*
X75707Y332475D01*
X75713Y332376D01*
X75715Y332276D01*
X75713Y332135D01*
X75708Y331994D01*
X75698Y331853D01*
X75685Y331712D01*
X75669Y331572D01*
X75648Y331432D01*
X75624Y331293D01*
X75596Y331154D01*
X75565Y331017D01*
X75530Y330880D01*
X75492Y330744D01*
X75450Y330609D01*
X75404Y330476D01*
X75355Y330343D01*
X75302Y330212D01*
X75246Y330083D01*
X75187Y329954D01*
X75124Y329828D01*
X75058Y329703D01*
X74989Y329580D01*
X74916Y329459D01*
X74840Y329340D01*
X74761Y329222D01*
X74680Y329107D01*
X74595Y328995D01*
X74507Y328884D01*
X74416Y328776D01*
X74323Y328670D01*
X74226Y328567D01*
X74127Y328466D01*
X66825Y328784D02*
X66725Y328786D01*
X66626Y328792D01*
X66526Y328802D01*
X66428Y328815D01*
X66329Y328833D01*
X66232Y328854D01*
X66136Y328879D01*
X66040Y328908D01*
X65946Y328941D01*
X65853Y328977D01*
X65762Y329017D01*
X65672Y329061D01*
X65584Y329108D01*
X65498Y329158D01*
X65414Y329212D01*
X65332Y329269D01*
X65253Y329329D01*
X65175Y329393D01*
X65101Y329459D01*
X65029Y329528D01*
X64960Y329600D01*
X64894Y329674D01*
X64830Y329752D01*
X64770Y329831D01*
X64713Y329913D01*
X64659Y329997D01*
X64609Y330083D01*
X64562Y330171D01*
X64518Y330261D01*
X64478Y330352D01*
X64442Y330445D01*
X64409Y330539D01*
X64380Y330635D01*
X64355Y330731D01*
X64334Y330828D01*
X64316Y330927D01*
X64303Y331025D01*
X64293Y331125D01*
X64287Y331224D01*
X64285Y331324D01*
X64287Y331457D01*
X64292Y331590D01*
X64302Y331723D01*
X64315Y331856D01*
X64332Y331988D01*
X64352Y332120D01*
X64376Y332251D01*
X64404Y332381D01*
X64435Y332511D01*
X64470Y332639D01*
X64509Y332767D01*
X64551Y332893D01*
X64597Y333018D01*
X64646Y333142D01*
X64698Y333265D01*
X64754Y333386D01*
X64814Y333505D01*
X64876Y333623D01*
X64942Y333738D01*
X65011Y333852D01*
X65084Y333964D01*
X65159Y334074D01*
X65238Y334182D01*
X69048Y330053D02*
X68996Y329969D01*
X68941Y329886D01*
X68882Y329806D01*
X68821Y329728D01*
X68757Y329653D01*
X68689Y329580D01*
X68619Y329509D01*
X68547Y329442D01*
X68472Y329377D01*
X68394Y329315D01*
X68314Y329256D01*
X68232Y329200D01*
X68148Y329148D01*
X68062Y329099D01*
X67974Y329053D01*
X67884Y329010D01*
X67793Y328971D01*
X67700Y328936D01*
X67606Y328904D01*
X67511Y328876D01*
X67415Y328851D01*
X67318Y328831D01*
X67220Y328813D01*
X67122Y328800D01*
X67023Y328791D01*
X66924Y328785D01*
X66825Y328783D01*
X70952Y333546D02*
X71004Y333630D01*
X71059Y333713D01*
X71118Y333793D01*
X71179Y333871D01*
X71243Y333946D01*
X71311Y334019D01*
X71381Y334090D01*
X71453Y334157D01*
X71528Y334222D01*
X71606Y334284D01*
X71686Y334343D01*
X71768Y334399D01*
X71852Y334451D01*
X71938Y334500D01*
X72026Y334546D01*
X72116Y334589D01*
X72207Y334628D01*
X72300Y334663D01*
X72394Y334695D01*
X72489Y334723D01*
X72585Y334748D01*
X72682Y334768D01*
X72780Y334786D01*
X72878Y334799D01*
X72977Y334808D01*
X73076Y334814D01*
X73175Y334816D01*
X70953Y333546D02*
X69048Y330054D01*
X66825Y339515D02*
X64285Y342690D01*
X75715Y342690D01*
X75715Y339515D02*
X75715Y345865D01*
D10*
X167930Y323800D02*
X272070Y323800D01*
X272070Y482550D02*
X167930Y482550D01*
X272070Y448260D02*
X272070Y323800D01*
X272070Y448260D02*
X263180Y448260D01*
X263180Y463500D01*
X272070Y463500D01*
X272070Y482550D01*
X167930Y448260D02*
X167930Y323800D01*
X167930Y448260D02*
X176820Y448260D01*
X176820Y463500D01*
X167930Y463500D01*
X167930Y482550D01*
D19*
X174280Y330150D02*
X265720Y330150D01*
X265720Y412700D01*
X174280Y412700D01*
X174280Y330150D01*
D10*
X201966Y448260D02*
X201971Y448703D01*
X201988Y449145D01*
X202015Y449587D01*
X202053Y450028D01*
X202102Y450468D01*
X202161Y450906D01*
X202232Y451343D01*
X202313Y451778D01*
X202404Y452211D01*
X202506Y452642D01*
X202619Y453070D01*
X202743Y453495D01*
X202876Y453917D01*
X203020Y454335D01*
X203174Y454750D01*
X203339Y455161D01*
X203513Y455568D01*
X203697Y455971D01*
X203892Y456368D01*
X204095Y456761D01*
X204309Y457149D01*
X204532Y457531D01*
X204764Y457908D01*
X205005Y458279D01*
X205256Y458644D01*
X205515Y459003D01*
X205783Y459355D01*
X206060Y459701D01*
X206344Y460039D01*
X206638Y460371D01*
X206939Y460695D01*
X207248Y461012D01*
X207565Y461321D01*
X207889Y461622D01*
X208221Y461916D01*
X208559Y462200D01*
X208905Y462477D01*
X209257Y462745D01*
X209616Y463004D01*
X209981Y463255D01*
X210352Y463496D01*
X210729Y463728D01*
X211111Y463951D01*
X211499Y464165D01*
X211892Y464368D01*
X212289Y464563D01*
X212692Y464747D01*
X213099Y464921D01*
X213510Y465086D01*
X213925Y465240D01*
X214343Y465384D01*
X214765Y465517D01*
X215190Y465641D01*
X215618Y465754D01*
X216049Y465856D01*
X216482Y465947D01*
X216917Y466028D01*
X217354Y466099D01*
X217792Y466158D01*
X218232Y466207D01*
X218673Y466245D01*
X219115Y466272D01*
X219557Y466289D01*
X220000Y466294D01*
X220443Y466289D01*
X220885Y466272D01*
X221327Y466245D01*
X221768Y466207D01*
X222208Y466158D01*
X222646Y466099D01*
X223083Y466028D01*
X223518Y465947D01*
X223951Y465856D01*
X224382Y465754D01*
X224810Y465641D01*
X225235Y465517D01*
X225657Y465384D01*
X226075Y465240D01*
X226490Y465086D01*
X226901Y464921D01*
X227308Y464747D01*
X227711Y464563D01*
X228108Y464368D01*
X228501Y464165D01*
X228889Y463951D01*
X229271Y463728D01*
X229648Y463496D01*
X230019Y463255D01*
X230384Y463004D01*
X230743Y462745D01*
X231095Y462477D01*
X231441Y462200D01*
X231779Y461916D01*
X232111Y461622D01*
X232435Y461321D01*
X232752Y461012D01*
X233061Y460695D01*
X233362Y460371D01*
X233656Y460039D01*
X233940Y459701D01*
X234217Y459355D01*
X234485Y459003D01*
X234744Y458644D01*
X234995Y458279D01*
X235236Y457908D01*
X235468Y457531D01*
X235691Y457149D01*
X235905Y456761D01*
X236108Y456368D01*
X236303Y455971D01*
X236487Y455568D01*
X236661Y455161D01*
X236826Y454750D01*
X236980Y454335D01*
X237124Y453917D01*
X237257Y453495D01*
X237381Y453070D01*
X237494Y452642D01*
X237596Y452211D01*
X237687Y451778D01*
X237768Y451343D01*
X237839Y450906D01*
X237898Y450468D01*
X237947Y450028D01*
X237985Y449587D01*
X238012Y449145D01*
X238029Y448703D01*
X238034Y448260D01*
X238029Y447817D01*
X238012Y447375D01*
X237985Y446933D01*
X237947Y446492D01*
X237898Y446052D01*
X237839Y445614D01*
X237768Y445177D01*
X237687Y444742D01*
X237596Y444309D01*
X237494Y443878D01*
X237381Y443450D01*
X237257Y443025D01*
X237124Y442603D01*
X236980Y442185D01*
X236826Y441770D01*
X236661Y441359D01*
X236487Y440952D01*
X236303Y440549D01*
X236108Y440152D01*
X235905Y439759D01*
X235691Y439371D01*
X235468Y438989D01*
X235236Y438612D01*
X234995Y438241D01*
X234744Y437876D01*
X234485Y437517D01*
X234217Y437165D01*
X233940Y436819D01*
X233656Y436481D01*
X233362Y436149D01*
X233061Y435825D01*
X232752Y435508D01*
X232435Y435199D01*
X232111Y434898D01*
X231779Y434604D01*
X231441Y434320D01*
X231095Y434043D01*
X230743Y433775D01*
X230384Y433516D01*
X230019Y433265D01*
X229648Y433024D01*
X229271Y432792D01*
X228889Y432569D01*
X228501Y432355D01*
X228108Y432152D01*
X227711Y431957D01*
X227308Y431773D01*
X226901Y431599D01*
X226490Y431434D01*
X226075Y431280D01*
X225657Y431136D01*
X225235Y431003D01*
X224810Y430879D01*
X224382Y430766D01*
X223951Y430664D01*
X223518Y430573D01*
X223083Y430492D01*
X222646Y430421D01*
X222208Y430362D01*
X221768Y430313D01*
X221327Y430275D01*
X220885Y430248D01*
X220443Y430231D01*
X220000Y430226D01*
X219557Y430231D01*
X219115Y430248D01*
X218673Y430275D01*
X218232Y430313D01*
X217792Y430362D01*
X217354Y430421D01*
X216917Y430492D01*
X216482Y430573D01*
X216049Y430664D01*
X215618Y430766D01*
X215190Y430879D01*
X214765Y431003D01*
X214343Y431136D01*
X213925Y431280D01*
X213510Y431434D01*
X213099Y431599D01*
X212692Y431773D01*
X212289Y431957D01*
X211892Y432152D01*
X211499Y432355D01*
X211111Y432569D01*
X210729Y432792D01*
X210352Y433024D01*
X209981Y433265D01*
X209616Y433516D01*
X209257Y433775D01*
X208905Y434043D01*
X208559Y434320D01*
X208221Y434604D01*
X207889Y434898D01*
X207565Y435199D01*
X207248Y435508D01*
X206939Y435825D01*
X206638Y436149D01*
X206344Y436481D01*
X206060Y436819D01*
X205783Y437165D01*
X205515Y437517D01*
X205256Y437876D01*
X205005Y438241D01*
X204764Y438612D01*
X204532Y438989D01*
X204309Y439371D01*
X204095Y439759D01*
X203892Y440152D01*
X203697Y440549D01*
X203513Y440952D01*
X203339Y441359D01*
X203174Y441770D01*
X203020Y442185D01*
X202876Y442603D01*
X202743Y443025D01*
X202619Y443450D01*
X202506Y443878D01*
X202404Y444309D01*
X202313Y444742D01*
X202232Y445177D01*
X202161Y445614D01*
X202102Y446052D01*
X202053Y446492D01*
X202015Y446933D01*
X201988Y447375D01*
X201971Y447817D01*
X201966Y448260D01*
D20*
X245400Y292685D03*
X220000Y292685D03*
X194600Y292685D03*
D21*
X194600Y309830D03*
X220000Y309830D03*
X245400Y309830D03*
D12*
X164501Y293447D02*
X148499Y293447D01*
X164501Y291669D02*
X164501Y295225D01*
X148499Y295225D02*
X148499Y291669D01*
X164501Y305019D02*
X164501Y308575D01*
X164501Y305019D02*
X164499Y304903D01*
X164493Y304786D01*
X164484Y304670D01*
X164471Y304555D01*
X164454Y304440D01*
X164433Y304325D01*
X164408Y304212D01*
X164380Y304099D01*
X164348Y303987D01*
X164312Y303876D01*
X164273Y303766D01*
X164230Y303658D01*
X164184Y303551D01*
X164134Y303446D01*
X164081Y303343D01*
X164025Y303241D01*
X163965Y303141D01*
X163902Y303043D01*
X163835Y302948D01*
X163766Y302854D01*
X163694Y302763D01*
X163619Y302674D01*
X163540Y302588D01*
X163459Y302505D01*
X163376Y302424D01*
X163290Y302345D01*
X163201Y302270D01*
X163110Y302198D01*
X163016Y302129D01*
X162921Y302062D01*
X162823Y301999D01*
X162723Y301939D01*
X162621Y301883D01*
X162518Y301830D01*
X162413Y301780D01*
X162306Y301734D01*
X162198Y301691D01*
X162088Y301652D01*
X161977Y301616D01*
X161865Y301584D01*
X161752Y301556D01*
X161639Y301531D01*
X161524Y301510D01*
X161409Y301493D01*
X161294Y301480D01*
X161178Y301471D01*
X161061Y301465D01*
X160945Y301463D01*
X152055Y301463D01*
X151939Y301465D01*
X151822Y301471D01*
X151706Y301480D01*
X151591Y301493D01*
X151476Y301510D01*
X151361Y301531D01*
X151248Y301556D01*
X151135Y301584D01*
X151023Y301616D01*
X150912Y301652D01*
X150802Y301691D01*
X150694Y301734D01*
X150587Y301780D01*
X150482Y301830D01*
X150379Y301883D01*
X150277Y301939D01*
X150177Y301999D01*
X150079Y302062D01*
X149984Y302129D01*
X149890Y302198D01*
X149799Y302270D01*
X149710Y302345D01*
X149624Y302424D01*
X149541Y302505D01*
X149460Y302588D01*
X149381Y302674D01*
X149306Y302763D01*
X149234Y302854D01*
X149165Y302948D01*
X149098Y303043D01*
X149035Y303141D01*
X148975Y303241D01*
X148919Y303343D01*
X148866Y303446D01*
X148816Y303551D01*
X148770Y303658D01*
X148727Y303766D01*
X148688Y303876D01*
X148652Y303987D01*
X148620Y304099D01*
X148592Y304212D01*
X148567Y304325D01*
X148546Y304440D01*
X148529Y304555D01*
X148516Y304670D01*
X148507Y304786D01*
X148501Y304903D01*
X148499Y305019D01*
X148499Y308575D01*
X152055Y314533D02*
X148499Y318978D01*
X164501Y318978D01*
X164501Y314533D02*
X164501Y323423D01*
M02*
