G04 EAGLE Gerber RS-274X export*
G75*
%MOMM*%
%FSLAX34Y34*%
%LPD*%
%INSoldermask Bottom*%
%IPPOS*%
%AMOC8*
5,1,8,0,0,1.08239X$1,22.5*%
G01*
%ADD10C,2.743200*%
%ADD11P,2.969212X8X22.500000*%
%ADD12C,1.879600*%
%ADD13C,2.082800*%
%ADD14C,1.727200*%
%ADD15C,2.203200*%
%ADD16C,1.524000*%
%ADD17C,1.879600*%
%ADD18C,3.505200*%


D10*
X213300Y212100D03*
D11*
X264100Y212100D03*
D12*
X130300Y96400D03*
X28700Y96400D03*
X263300Y96400D03*
X161700Y96400D03*
X130800Y30000D03*
X29200Y30000D03*
X270300Y32600D03*
X168700Y32600D03*
D13*
X360000Y284600D03*
X360000Y335400D03*
D14*
X314600Y37620D02*
X314600Y22380D01*
X340000Y22380D02*
X340000Y37620D01*
X365400Y37620D02*
X365400Y22380D01*
D15*
X151000Y220000D02*
X151000Y240000D01*
X90000Y240000D02*
X90000Y220000D01*
X110000Y182000D02*
X130000Y182000D01*
D16*
X45108Y433368D02*
X45108Y446576D01*
X94892Y446576D02*
X94892Y433368D01*
X45108Y386632D02*
X45108Y373424D01*
X94892Y373424D02*
X94892Y386632D01*
X70000Y433368D02*
X70000Y446576D01*
X70000Y386632D02*
X70000Y373424D01*
D17*
X194600Y306782D02*
X194600Y290018D01*
X220000Y290018D02*
X220000Y306782D01*
X245400Y306782D02*
X245400Y290018D01*
D18*
X220000Y448260D03*
M02*
