M48
;GenerationSoftware,Autodesk,EAGLE,9.6.2*%
;CreationDate,2021-11-02T08:00:14Z*%
FMAT,2
ICI,OFF
METRIC,TZ,000.000
T6C0.800
T5C0.813
T4C1.000
T3C1.016
T2C1.118
T1C3.302
%
G90
M71
T1
X22000Y44826
T2
X13030Y9640
X2870Y9640
X26330Y9640
X16170Y9640
X13080Y3000
X2920Y3000
X27030Y3260
X16870Y3260
X19460Y29840
X22000Y29840
X24540Y29840
T3
X21330Y21210
X26410Y21210
X31460Y3000
X34000Y3000
X36540Y3000
T4
X15100Y23000
X9000Y23000
X12000Y18200
T5
X4511Y43997
X9489Y43997
X4511Y38003
X9489Y38003
X7000Y43997
X7000Y38003
T6
X36000Y28460
X36000Y33540
M30